<svg width="243" height="143" viewBox="0 0 243 143" fill="none" xmlns="http://www.w3.org/2000/svg">
<ellipse cx="1.00877" cy="1.01" rx="1.00877" ry="1.01" transform="matrix(4.37114e-08 -1 -1 -4.37114e-08 214 115)" fill="#3091D0"/>
<ellipse cx="1.00877" cy="1.01" rx="1.00877" ry="1.01" transform="matrix(4.37114e-08 -1 -1 -4.37114e-08 199.859 115)" fill="#3091D0"/>
<ellipse cx="1.00877" cy="1.01" rx="1.00877" ry="1.01" transform="matrix(4.37114e-08 -1 -1 -4.37114e-08 185.719 115)" fill="#3091D0"/>
<ellipse cx="1.00877" cy="1.01" rx="1.00877" ry="1.01" transform="matrix(4.37114e-08 -1 -1 -4.37114e-08 171.578 115)" fill="#3091D0"/>
<ellipse cx="1.00877" cy="1.01" rx="1.00877" ry="1.01" transform="matrix(4.37114e-08 -1 -1 -4.37114e-08 157.441 115)" fill="#3091D0"/>
<ellipse cx="1.00877" cy="1.01" rx="1.00877" ry="1.01" transform="matrix(4.37114e-08 -1 -1 -4.37114e-08 143.301 115)" fill="#3091D0"/>
<ellipse cx="1.00877" cy="1.01" rx="1.00877" ry="1.01" transform="matrix(4.37114e-08 -1 -1 -4.37114e-08 129.16 115)" fill="#3091D0"/>
<ellipse cx="1.00877" cy="1.01" rx="1.00877" ry="1.01" transform="matrix(4.37114e-08 -1 -1 -4.37114e-08 115.02 115)" fill="#3091D0"/>
<ellipse cx="1.00877" cy="1.01" rx="1.00877" ry="1.01" transform="matrix(4.37114e-08 -1 -1 -4.37114e-08 214 100.877)" fill="#3091D0"/>
<ellipse cx="1.00877" cy="1.01" rx="1.00877" ry="1.01" transform="matrix(4.37114e-08 -1 -1 -4.37114e-08 199.859 100.877)" fill="#3091D0"/>
<ellipse cx="1.00877" cy="1.01" rx="1.00877" ry="1.01" transform="matrix(4.37114e-08 -1 -1 -4.37114e-08 185.719 100.877)" fill="#3091D0"/>
<ellipse cx="1.00877" cy="1.01" rx="1.00877" ry="1.01" transform="matrix(4.37114e-08 -1 -1 -4.37114e-08 171.582 100.877)" fill="#3091D0"/>
<ellipse cx="1.00877" cy="1.01" rx="1.00877" ry="1.01" transform="matrix(4.37114e-08 -1 -1 -4.37114e-08 157.441 100.877)" fill="#3091D0"/>
<ellipse cx="1.00877" cy="1.01" rx="1.00877" ry="1.01" transform="matrix(4.37114e-08 -1 -1 -4.37114e-08 143.301 100.877)" fill="#3091D0"/>
<ellipse cx="1.00877" cy="1.01" rx="1.00877" ry="1.01" transform="matrix(4.37114e-08 -1 -1 -4.37114e-08 129.16 100.877)" fill="#3091D0"/>
<ellipse cx="1.00877" cy="1.01" rx="1.00877" ry="1.01" transform="matrix(4.37114e-08 -1 -1 -4.37114e-08 115.02 100.877)" fill="#3091D0"/>
<ellipse cx="1.00877" cy="1.01" rx="1.00877" ry="1.01" transform="matrix(4.37114e-08 -1 -1 -4.37114e-08 214 86.7559)" fill="#3091D0"/>
<ellipse cx="1.00877" cy="1.01" rx="1.00877" ry="1.01" transform="matrix(4.37114e-08 -1 -1 -4.37114e-08 199.859 86.7559)" fill="#3091D0"/>
<ellipse cx="1.00877" cy="1.01" rx="1.00877" ry="1.01" transform="matrix(4.37114e-08 -1 -1 -4.37114e-08 185.719 86.7559)" fill="#3091D0"/>
<ellipse cx="1.00877" cy="1.01" rx="1.00877" ry="1.01" transform="matrix(4.37114e-08 -1 -1 -4.37114e-08 171.582 86.7559)" fill="#3091D0"/>
<ellipse cx="1.00877" cy="1.01" rx="1.00877" ry="1.01" transform="matrix(4.37114e-08 -1 -1 -4.37114e-08 157.441 86.7559)" fill="#3091D0"/>
<ellipse cx="1.00877" cy="1.01" rx="1.00877" ry="1.01" transform="matrix(4.37114e-08 -1 -1 -4.37114e-08 143.301 86.7559)" fill="#3091D0"/>
<ellipse cx="1.00877" cy="1.01" rx="1.00877" ry="1.01" transform="matrix(4.37114e-08 -1 -1 -4.37114e-08 129.16 86.7559)" fill="#3091D0"/>
<ellipse cx="1.00877" cy="1.01" rx="1.00877" ry="1.01" transform="matrix(4.37114e-08 -1 -1 -4.37114e-08 115.02 86.7559)" fill="#3091D0"/>
<ellipse cx="1.00877" cy="1.01" rx="1.00877" ry="1.01" transform="matrix(4.37114e-08 -1 -1 -4.37114e-08 214 72.6309)" fill="#3091D0"/>
<ellipse cx="1.00877" cy="1.01" rx="1.00877" ry="1.01" transform="matrix(4.37114e-08 -1 -1 -4.37114e-08 199.859 72.6309)" fill="#3091D0"/>
<ellipse cx="1.00877" cy="1.01" rx="1.00877" ry="1.01" transform="matrix(4.37114e-08 -1 -1 -4.37114e-08 185.719 72.6309)" fill="#3091D0"/>
<ellipse cx="1.00877" cy="1.01" rx="1.00877" ry="1.01" transform="matrix(4.37114e-08 -1 -1 -4.37114e-08 171.582 72.6309)" fill="#3091D0"/>
<ellipse cx="1.00877" cy="1.01" rx="1.00877" ry="1.01" transform="matrix(4.37114e-08 -1 -1 -4.37114e-08 157.441 72.6309)" fill="#3091D0"/>
<ellipse cx="1.00877" cy="1.01" rx="1.00877" ry="1.01" transform="matrix(4.37114e-08 -1 -1 -4.37114e-08 143.301 72.6309)" fill="#3091D0"/>
<ellipse cx="1.00877" cy="1.01" rx="1.00877" ry="1.01" transform="matrix(4.37114e-08 -1 -1 -4.37114e-08 129.16 72.6309)" fill="#3091D0"/>
<ellipse cx="1.00877" cy="1.01" rx="1.00877" ry="1.01" transform="matrix(4.37114e-08 -1 -1 -4.37114e-08 115.02 72.6309)" fill="#3091D0"/>
<ellipse cx="1.00877" cy="1.01" rx="1.00877" ry="1.01" transform="matrix(4.37114e-08 -1 -1 -4.37114e-08 214 58.5078)" fill="#3091D0"/>
<ellipse cx="1.00877" cy="1.01" rx="1.00877" ry="1.01" transform="matrix(4.37114e-08 -1 -1 -4.37114e-08 199.859 58.5078)" fill="#3091D0"/>
<ellipse cx="1.00877" cy="1.01" rx="1.00877" ry="1.01" transform="matrix(4.37114e-08 -1 -1 -4.37114e-08 185.719 58.5078)" fill="#3091D0"/>
<ellipse cx="1.00877" cy="1.01" rx="1.00877" ry="1.01" transform="matrix(4.37114e-08 -1 -1 -4.37114e-08 171.582 58.5078)" fill="#3091D0"/>
<ellipse cx="1.00877" cy="1.01" rx="1.00877" ry="1.01" transform="matrix(4.37114e-08 -1 -1 -4.37114e-08 157.441 58.5078)" fill="#3091D0"/>
<ellipse cx="1.00877" cy="1.01" rx="1.00877" ry="1.01" transform="matrix(4.37114e-08 -1 -1 -4.37114e-08 143.301 58.5078)" fill="#3091D0"/>
<ellipse cx="1.00877" cy="1.01" rx="1.00877" ry="1.01" transform="matrix(4.37114e-08 -1 -1 -4.37114e-08 129.16 58.5078)" fill="#3091D0"/>
<ellipse cx="1.00877" cy="1.01" rx="1.00877" ry="1.01" transform="matrix(4.37114e-08 -1 -1 -4.37114e-08 115.02 58.5078)" fill="#3091D0"/>
<ellipse cx="1.00877" cy="1.01" rx="1.00877" ry="1.01" transform="matrix(4.37114e-08 -1 -1 -4.37114e-08 214 44.3867)" fill="#3091D0"/>
<ellipse cx="1.00877" cy="1.01" rx="1.00877" ry="1.01" transform="matrix(4.37114e-08 -1 -1 -4.37114e-08 214 16.1406)" fill="#3091D0"/>
<ellipse cx="1.00877" cy="1.01" rx="1.00877" ry="1.01" transform="matrix(4.37114e-08 -1 -1 -4.37114e-08 199.859 44.3867)" fill="#3091D0"/>
<ellipse cx="1.00877" cy="1.01" rx="1.00877" ry="1.01" transform="matrix(4.37114e-08 -1 -1 -4.37114e-08 199.859 16.1406)" fill="#3091D0"/>
<ellipse cx="1.00877" cy="1.01" rx="1.00877" ry="1.01" transform="matrix(4.37114e-08 -1 -1 -4.37114e-08 185.719 44.3867)" fill="#3091D0"/>
<ellipse cx="1.00877" cy="1.01" rx="1.00877" ry="1.01" transform="matrix(4.37114e-08 -1 -1 -4.37114e-08 185.719 16.1406)" fill="#3091D0"/>
<ellipse cx="1.00877" cy="1.01" rx="1.00877" ry="1.01" transform="matrix(4.37114e-08 -1 -1 -4.37114e-08 171.582 44.3867)" fill="#3091D0"/>
<ellipse cx="1.00877" cy="1.01" rx="1.00877" ry="1.01" transform="matrix(4.37114e-08 -1 -1 -4.37114e-08 171.582 16.1406)" fill="#3091D0"/>
<ellipse cx="1.00877" cy="1.01" rx="1.00877" ry="1.01" transform="matrix(4.37114e-08 -1 -1 -4.37114e-08 157.441 44.3867)" fill="#3091D0"/>
<ellipse cx="1.00877" cy="1.01" rx="1.00877" ry="1.01" transform="matrix(4.37114e-08 -1 -1 -4.37114e-08 157.441 16.1406)" fill="#3091D0"/>
<ellipse cx="1.00877" cy="1.01" rx="1.00877" ry="1.01" transform="matrix(4.37114e-08 -1 -1 -4.37114e-08 143.301 44.3867)" fill="#3091D0"/>
<ellipse cx="1.00877" cy="1.01" rx="1.00877" ry="1.01" transform="matrix(4.37114e-08 -1 -1 -4.37114e-08 143.301 16.1406)" fill="#3091D0"/>
<ellipse cx="1.00877" cy="1.01" rx="1.00877" ry="1.01" transform="matrix(4.37114e-08 -1 -1 -4.37114e-08 129.16 44.3867)" fill="#3091D0"/>
<ellipse cx="1.00877" cy="1.01" rx="1.00877" ry="1.01" transform="matrix(4.37114e-08 -1 -1 -4.37114e-08 129.16 16.1406)" fill="#3091D0"/>
<ellipse cx="1.00877" cy="1.01" rx="1.00877" ry="1.01" transform="matrix(4.37114e-08 -1 -1 -4.37114e-08 115.02 44.3867)" fill="#3091D0"/>
<ellipse cx="1.00877" cy="1.01" rx="1.00877" ry="1.01" transform="matrix(4.37114e-08 -1 -1 -4.37114e-08 115.02 16.1406)" fill="#3091D0"/>
<ellipse cx="1.00877" cy="1.01" rx="1.00877" ry="1.01" transform="matrix(4.37114e-08 -1 -1 -4.37114e-08 214 30.2637)" fill="#3091D0"/>
<ellipse cx="1.00877" cy="1.01" rx="1.00877" ry="1.01" transform="matrix(4.37114e-08 -1 -1 -4.37114e-08 214 2.01758)" fill="#3091D0"/>
<ellipse cx="1.00877" cy="1.01" rx="1.00877" ry="1.01" transform="matrix(4.37114e-08 -1 -1 -4.37114e-08 199.859 30.2637)" fill="#3091D0"/>
<ellipse cx="1.00877" cy="1.01" rx="1.00877" ry="1.01" transform="matrix(4.37114e-08 -1 -1 -4.37114e-08 199.859 2.01758)" fill="#3091D0"/>
<ellipse cx="1.00877" cy="1.01" rx="1.00877" ry="1.01" transform="matrix(4.37114e-08 -1 -1 -4.37114e-08 185.719 30.2637)" fill="#3091D0"/>
<ellipse cx="1.00877" cy="1.01" rx="1.00877" ry="1.01" transform="matrix(4.37114e-08 -1 -1 -4.37114e-08 185.719 2.01758)" fill="#3091D0"/>
<ellipse cx="1.00877" cy="1.01" rx="1.00877" ry="1.01" transform="matrix(4.37114e-08 -1 -1 -4.37114e-08 171.582 30.2637)" fill="#3091D0"/>
<ellipse cx="1.00877" cy="1.01" rx="1.00877" ry="1.01" transform="matrix(4.37114e-08 -1 -1 -4.37114e-08 171.582 2.01758)" fill="#3091D0"/>
<ellipse cx="1.00877" cy="1.01" rx="1.00877" ry="1.01" transform="matrix(4.37114e-08 -1 -1 -4.37114e-08 157.441 30.2637)" fill="#3091D0"/>
<ellipse cx="1.00877" cy="1.01" rx="1.00877" ry="1.01" transform="matrix(4.37114e-08 -1 -1 -4.37114e-08 157.441 2.01758)" fill="#3091D0"/>
<ellipse cx="1.00877" cy="1.01" rx="1.00877" ry="1.01" transform="matrix(4.37114e-08 -1 -1 -4.37114e-08 143.301 30.2637)" fill="#3091D0"/>
<ellipse cx="1.00877" cy="1.01" rx="1.00877" ry="1.01" transform="matrix(4.37114e-08 -1 -1 -4.37114e-08 143.301 2.01758)" fill="#3091D0"/>
<ellipse cx="1.00877" cy="1.01" rx="1.00877" ry="1.01" transform="matrix(4.37114e-08 -1 -1 -4.37114e-08 129.16 30.2637)" fill="#3091D0"/>
<ellipse cx="1.00877" cy="1.01" rx="1.00877" ry="1.01" transform="matrix(4.37114e-08 -1 -1 -4.37114e-08 129.16 2.01758)" fill="#3091D0"/>
<ellipse cx="1.00877" cy="1.01" rx="1.00877" ry="1.01" transform="matrix(4.37114e-08 -1 -1 -4.37114e-08 115.02 30.2637)" fill="#3091D0"/>
<ellipse cx="1.00877" cy="1.01" rx="1.00877" ry="1.01" transform="matrix(4.37114e-08 -1 -1 -4.37114e-08 115.02 2.01758)" fill="#3091D0"/>
<ellipse cx="1.00877" cy="1.01" rx="1.00877" ry="1.01" transform="matrix(4.37114e-08 -1 -1 -4.37114e-08 101 115)" fill="#3091D0"/>
<ellipse cx="1.00877" cy="1.01" rx="1.00877" ry="1.01" transform="matrix(4.37114e-08 -1 -1 -4.37114e-08 86.8594 115)" fill="#3091D0"/>
<ellipse cx="1.00877" cy="1.01" rx="1.00877" ry="1.01" transform="matrix(4.37114e-08 -1 -1 -4.37114e-08 72.7188 115)" fill="#3091D0"/>
<ellipse cx="1.00877" cy="1.01" rx="1.00877" ry="1.01" transform="matrix(4.37114e-08 -1 -1 -4.37114e-08 58.5781 115)" fill="#3091D0"/>
<ellipse cx="1.00877" cy="1.01" rx="1.00877" ry="1.01" transform="matrix(4.37114e-08 -1 -1 -4.37114e-08 44.4414 115)" fill="#3091D0"/>
<ellipse cx="1.00877" cy="1.01" rx="1.00877" ry="1.01" transform="matrix(4.37114e-08 -1 -1 -4.37114e-08 30.3008 115)" fill="#3091D0"/>
<ellipse cx="1.00877" cy="1.01" rx="1.00877" ry="1.01" transform="matrix(4.37114e-08 -1 -1 -4.37114e-08 16.1602 115)" fill="#3091D0"/>
<ellipse cx="1.00877" cy="1.01" rx="1.00877" ry="1.01" transform="matrix(4.37114e-08 -1 -1 -4.37114e-08 2.01953 115)" fill="#3091D0"/>
<ellipse cx="1.00877" cy="1.01" rx="1.00877" ry="1.01" transform="matrix(4.37114e-08 -1 -1 -4.37114e-08 101 100.877)" fill="#3091D0"/>
<ellipse cx="1.00877" cy="1.01" rx="1.00877" ry="1.01" transform="matrix(4.37114e-08 -1 -1 -4.37114e-08 86.8594 100.877)" fill="#3091D0"/>
<ellipse cx="1.00877" cy="1.01" rx="1.00877" ry="1.01" transform="matrix(4.37114e-08 -1 -1 -4.37114e-08 72.7188 100.877)" fill="#3091D0"/>
<ellipse cx="1.00877" cy="1.01" rx="1.00877" ry="1.01" transform="matrix(4.37114e-08 -1 -1 -4.37114e-08 58.582 100.877)" fill="#3091D0"/>
<ellipse cx="1.00877" cy="1.01" rx="1.00877" ry="1.01" transform="matrix(4.37114e-08 -1 -1 -4.37114e-08 44.4414 100.877)" fill="#3091D0"/>
<ellipse cx="1.00877" cy="1.01" rx="1.00877" ry="1.01" transform="matrix(4.37114e-08 -1 -1 -4.37114e-08 30.3008 100.877)" fill="#3091D0"/>
<ellipse cx="1.00877" cy="1.01" rx="1.00877" ry="1.01" transform="matrix(4.37114e-08 -1 -1 -4.37114e-08 16.1602 100.877)" fill="#3091D0"/>
<ellipse cx="1.00877" cy="1.01" rx="1.00877" ry="1.01" transform="matrix(4.37114e-08 -1 -1 -4.37114e-08 2.01953 100.877)" fill="#3091D0"/>
<ellipse cx="1.00877" cy="1.01" rx="1.00877" ry="1.01" transform="matrix(4.37114e-08 -1 -1 -4.37114e-08 101 86.7559)" fill="#3091D0"/>
<ellipse cx="1.00877" cy="1.01" rx="1.00877" ry="1.01" transform="matrix(4.37114e-08 -1 -1 -4.37114e-08 86.8594 86.7559)" fill="#3091D0"/>
<ellipse cx="1.00877" cy="1.01" rx="1.00877" ry="1.01" transform="matrix(4.37114e-08 -1 -1 -4.37114e-08 72.7188 86.7559)" fill="#3091D0"/>
<ellipse cx="1.00877" cy="1.01" rx="1.00877" ry="1.01" transform="matrix(4.37114e-08 -1 -1 -4.37114e-08 58.582 86.7559)" fill="#3091D0"/>
<ellipse cx="1.00877" cy="1.01" rx="1.00877" ry="1.01" transform="matrix(4.37114e-08 -1 -1 -4.37114e-08 44.4414 86.7559)" fill="#3091D0"/>
<ellipse cx="1.00877" cy="1.01" rx="1.00877" ry="1.01" transform="matrix(4.37114e-08 -1 -1 -4.37114e-08 30.3008 86.7559)" fill="#3091D0"/>
<ellipse cx="1.00877" cy="1.01" rx="1.00877" ry="1.01" transform="matrix(4.37114e-08 -1 -1 -4.37114e-08 16.1602 86.7559)" fill="#3091D0"/>
<ellipse cx="1.00877" cy="1.01" rx="1.00877" ry="1.01" transform="matrix(4.37114e-08 -1 -1 -4.37114e-08 2.01953 86.7559)" fill="#3091D0"/>
<ellipse cx="1.00877" cy="1.01" rx="1.00877" ry="1.01" transform="matrix(4.37114e-08 -1 -1 -4.37114e-08 101 72.6309)" fill="#3091D0"/>
<ellipse cx="1.00877" cy="1.01" rx="1.00877" ry="1.01" transform="matrix(4.37114e-08 -1 -1 -4.37114e-08 86.8594 72.6309)" fill="#3091D0"/>
<ellipse cx="1.00877" cy="1.01" rx="1.00877" ry="1.01" transform="matrix(4.37114e-08 -1 -1 -4.37114e-08 72.7188 72.6309)" fill="#3091D0"/>
<ellipse cx="1.00877" cy="1.01" rx="1.00877" ry="1.01" transform="matrix(4.37114e-08 -1 -1 -4.37114e-08 58.582 72.6309)" fill="#3091D0"/>
<ellipse cx="1.00877" cy="1.01" rx="1.00877" ry="1.01" transform="matrix(4.37114e-08 -1 -1 -4.37114e-08 44.4414 72.6309)" fill="#3091D0"/>
<ellipse cx="1.00877" cy="1.01" rx="1.00877" ry="1.01" transform="matrix(4.37114e-08 -1 -1 -4.37114e-08 30.3008 72.6309)" fill="#3091D0"/>
<ellipse cx="1.00877" cy="1.01" rx="1.00877" ry="1.01" transform="matrix(4.37114e-08 -1 -1 -4.37114e-08 16.1602 72.6309)" fill="#3091D0"/>
<ellipse cx="1.00877" cy="1.01" rx="1.00877" ry="1.01" transform="matrix(4.37114e-08 -1 -1 -4.37114e-08 2.01953 72.6309)" fill="#3091D0"/>
<ellipse cx="1.00877" cy="1.01" rx="1.00877" ry="1.01" transform="matrix(4.37114e-08 -1 -1 -4.37114e-08 101 58.5078)" fill="#3091D0"/>
<ellipse cx="1.00877" cy="1.01" rx="1.00877" ry="1.01" transform="matrix(4.37114e-08 -1 -1 -4.37114e-08 86.8594 58.5078)" fill="#3091D0"/>
<ellipse cx="1.00877" cy="1.01" rx="1.00877" ry="1.01" transform="matrix(4.37114e-08 -1 -1 -4.37114e-08 72.7188 58.5078)" fill="#3091D0"/>
<ellipse cx="1.00877" cy="1.01" rx="1.00877" ry="1.01" transform="matrix(4.37114e-08 -1 -1 -4.37114e-08 58.582 58.5078)" fill="#3091D0"/>
<ellipse cx="1.00877" cy="1.01" rx="1.00877" ry="1.01" transform="matrix(4.37114e-08 -1 -1 -4.37114e-08 44.4414 58.5078)" fill="#3091D0"/>
<ellipse cx="1.00877" cy="1.01" rx="1.00877" ry="1.01" transform="matrix(4.37114e-08 -1 -1 -4.37114e-08 30.3008 58.5078)" fill="#3091D0"/>
<ellipse cx="1.00877" cy="1.01" rx="1.00877" ry="1.01" transform="matrix(4.37114e-08 -1 -1 -4.37114e-08 16.1602 58.5078)" fill="#3091D0"/>
<ellipse cx="1.00877" cy="1.01" rx="1.00877" ry="1.01" transform="matrix(4.37114e-08 -1 -1 -4.37114e-08 2.01953 58.5078)" fill="#3091D0"/>
<ellipse cx="1.00877" cy="1.01" rx="1.00877" ry="1.01" transform="matrix(4.37114e-08 -1 -1 -4.37114e-08 101 44.3867)" fill="#3091D0"/>
<ellipse cx="1.00877" cy="1.01" rx="1.00877" ry="1.01" transform="matrix(4.37114e-08 -1 -1 -4.37114e-08 101 16.1406)" fill="#3091D0"/>
<ellipse cx="1.00877" cy="1.01" rx="1.00877" ry="1.01" transform="matrix(4.37114e-08 -1 -1 -4.37114e-08 86.8594 44.3867)" fill="#3091D0"/>
<ellipse cx="1.00877" cy="1.01" rx="1.00877" ry="1.01" transform="matrix(4.37114e-08 -1 -1 -4.37114e-08 86.8594 16.1406)" fill="#3091D0"/>
<ellipse cx="1.00877" cy="1.01" rx="1.00877" ry="1.01" transform="matrix(4.37114e-08 -1 -1 -4.37114e-08 72.7188 44.3867)" fill="#3091D0"/>
<ellipse cx="1.00877" cy="1.01" rx="1.00877" ry="1.01" transform="matrix(4.37114e-08 -1 -1 -4.37114e-08 72.7188 16.1406)" fill="#3091D0"/>
<ellipse cx="1.00877" cy="1.01" rx="1.00877" ry="1.01" transform="matrix(4.37114e-08 -1 -1 -4.37114e-08 58.582 44.3867)" fill="#3091D0"/>
<ellipse cx="1.00877" cy="1.01" rx="1.00877" ry="1.01" transform="matrix(4.37114e-08 -1 -1 -4.37114e-08 58.582 16.1406)" fill="#3091D0"/>
<ellipse cx="1.00877" cy="1.01" rx="1.00877" ry="1.01" transform="matrix(4.37114e-08 -1 -1 -4.37114e-08 44.4414 44.3867)" fill="#3091D0"/>
<ellipse cx="1.00877" cy="1.01" rx="1.00877" ry="1.01" transform="matrix(4.37114e-08 -1 -1 -4.37114e-08 44.4414 16.1406)" fill="#3091D0"/>
<ellipse cx="1.00877" cy="1.01" rx="1.00877" ry="1.01" transform="matrix(4.37114e-08 -1 -1 -4.37114e-08 30.3008 44.3867)" fill="#3091D0"/>
<ellipse cx="1.00877" cy="1.01" rx="1.00877" ry="1.01" transform="matrix(4.37114e-08 -1 -1 -4.37114e-08 30.3008 16.1406)" fill="#3091D0"/>
<ellipse cx="1.00877" cy="1.01" rx="1.00877" ry="1.01" transform="matrix(4.37114e-08 -1 -1 -4.37114e-08 16.1602 44.3867)" fill="#3091D0"/>
<ellipse cx="1.00877" cy="1.01" rx="1.00877" ry="1.01" transform="matrix(4.37114e-08 -1 -1 -4.37114e-08 16.1602 16.1406)" fill="#3091D0"/>
<ellipse cx="1.00877" cy="1.01" rx="1.00877" ry="1.01" transform="matrix(4.37114e-08 -1 -1 -4.37114e-08 2.01953 44.3867)" fill="#3091D0"/>
<ellipse cx="1.00877" cy="1.01" rx="1.00877" ry="1.01" transform="matrix(4.37114e-08 -1 -1 -4.37114e-08 2.01953 16.1406)" fill="#3091D0"/>
<ellipse cx="1.00877" cy="1.01" rx="1.00877" ry="1.01" transform="matrix(4.37114e-08 -1 -1 -4.37114e-08 101 30.2637)" fill="#3091D0"/>
<ellipse cx="1.00877" cy="1.01" rx="1.00877" ry="1.01" transform="matrix(4.37114e-08 -1 -1 -4.37114e-08 101 2.01758)" fill="#3091D0"/>
<ellipse cx="1.00877" cy="1.01" rx="1.00877" ry="1.01" transform="matrix(4.37114e-08 -1 -1 -4.37114e-08 86.8594 30.2637)" fill="#3091D0"/>
<ellipse cx="1.00877" cy="1.01" rx="1.00877" ry="1.01" transform="matrix(4.37114e-08 -1 -1 -4.37114e-08 86.8594 2.01758)" fill="#3091D0"/>
<ellipse cx="1.00877" cy="1.01" rx="1.00877" ry="1.01" transform="matrix(4.37114e-08 -1 -1 -4.37114e-08 72.7188 30.2637)" fill="#3091D0"/>
<ellipse cx="1.00877" cy="1.01" rx="1.00877" ry="1.01" transform="matrix(4.37114e-08 -1 -1 -4.37114e-08 72.7188 2.01758)" fill="#3091D0"/>
<ellipse cx="1.00877" cy="1.01" rx="1.00877" ry="1.01" transform="matrix(4.37114e-08 -1 -1 -4.37114e-08 58.582 30.2637)" fill="#3091D0"/>
<ellipse cx="1.00877" cy="1.01" rx="1.00877" ry="1.01" transform="matrix(4.37114e-08 -1 -1 -4.37114e-08 58.582 2.01758)" fill="#3091D0"/>
<ellipse cx="1.00877" cy="1.01" rx="1.00877" ry="1.01" transform="matrix(4.37114e-08 -1 -1 -4.37114e-08 44.4414 30.2637)" fill="#3091D0"/>
<ellipse cx="1.00877" cy="1.01" rx="1.00877" ry="1.01" transform="matrix(4.37114e-08 -1 -1 -4.37114e-08 44.4414 2.01758)" fill="#3091D0"/>
<ellipse cx="1.00877" cy="1.01" rx="1.00877" ry="1.01" transform="matrix(4.37114e-08 -1 -1 -4.37114e-08 30.3008 30.2637)" fill="#3091D0"/>
<ellipse cx="1.00877" cy="1.01" rx="1.00877" ry="1.01" transform="matrix(4.37114e-08 -1 -1 -4.37114e-08 30.3008 2.01758)" fill="#3091D0"/>
<ellipse cx="1.00877" cy="1.01" rx="1.00877" ry="1.01" transform="matrix(4.37114e-08 -1 -1 -4.37114e-08 16.1602 30.2637)" fill="#3091D0"/>
<ellipse cx="1.00877" cy="1.01" rx="1.00877" ry="1.01" transform="matrix(4.37114e-08 -1 -1 -4.37114e-08 16.1602 2.01758)" fill="#3091D0"/>
<ellipse cx="1.00877" cy="1.01" rx="1.00877" ry="1.01" transform="matrix(4.37114e-08 -1 -1 -4.37114e-08 2.01953 30.2637)" fill="#3091D0"/>
<ellipse cx="1.00877" cy="1.01" rx="1.00877" ry="1.01" transform="matrix(4.37114e-08 -1 -1 -4.37114e-08 2.01953 2.01758)" fill="#3091D0"/>
<path d="M196.567 69.4932L243 69.4932C243 109.672 210.331 142.277 170 142.277L170 95.9812C184.66 95.9812 196.567 84.1096 196.567 69.4932V69.4932Z" fill="#FFCE1B"/>
</svg>
