<svg width="116" height="103" viewBox="0 0 116 103" fill="none" xmlns="http://www.w3.org/2000/svg">
<g clip-path="url(#clip0_1000_17057)">
<ellipse cx="1.00877" cy="1.01" rx="1.00877" ry="1.01" transform="matrix(1 8.74228e-08 8.74228e-08 -1 0.500061 101.498)" fill="#E43625"/>
<ellipse cx="1.00877" cy="1.01" rx="1.00877" ry="1.01" transform="matrix(1 8.74228e-08 8.74228e-08 -1 0.500061 87.3575)" fill="#E43625"/>
<ellipse cx="1.00877" cy="1.01" rx="1.00877" ry="1.01" transform="matrix(1 8.74228e-08 8.74228e-08 -1 0.500061 73.2168)" fill="#E43625"/>
<ellipse cx="1.00877" cy="1.01" rx="1.00877" ry="1.01" transform="matrix(1 8.74228e-08 8.74228e-08 -1 0.500061 59.0762)" fill="#E43625"/>
<ellipse cx="1.00877" cy="1.01" rx="1.00877" ry="1.01" transform="matrix(1 8.74228e-08 8.74228e-08 -1 0.500061 44.9395)" fill="#E43625"/>
<ellipse cx="1.00877" cy="1.01" rx="1.00877" ry="1.01" transform="matrix(1 8.74228e-08 8.74228e-08 -1 0.500061 30.7988)" fill="#E43625"/>
<ellipse cx="1.00877" cy="1.01" rx="1.00877" ry="1.01" transform="matrix(1 8.74228e-08 8.74228e-08 -1 0.500061 16.6582)" fill="#E43625"/>
<ellipse cx="1.00877" cy="1.01" rx="1.00877" ry="1.01" transform="matrix(1 8.74228e-08 8.74228e-08 -1 0.500061 2.51758)" fill="#E43625"/>
<ellipse cx="1.00877" cy="1.01" rx="1.00877" ry="1.01" transform="matrix(1 8.74228e-08 8.74228e-08 -1 14.6251 101.498)" fill="#E43625"/>
<ellipse cx="1.00877" cy="1.01" rx="1.00877" ry="1.01" transform="matrix(1 8.74228e-08 8.74228e-08 -1 14.6251 87.3575)" fill="#E43625"/>
<ellipse cx="1.00877" cy="1.01" rx="1.00877" ry="1.01" transform="matrix(1 8.74228e-08 8.74228e-08 -1 14.6251 73.2168)" fill="#E43625"/>
<ellipse cx="1.00877" cy="1.01" rx="1.00877" ry="1.01" transform="matrix(1 8.74228e-08 8.74228e-08 -1 14.6251 59.0801)" fill="#E43625"/>
<ellipse cx="1.00877" cy="1.01" rx="1.00877" ry="1.01" transform="matrix(1 8.74228e-08 8.74228e-08 -1 14.6251 44.9395)" fill="#E43625"/>
<ellipse cx="1.00877" cy="1.01" rx="1.00877" ry="1.01" transform="matrix(1 8.74228e-08 8.74228e-08 -1 14.6251 30.7989)" fill="#E43625"/>
<ellipse cx="1.00877" cy="1.01" rx="1.00877" ry="1.01" transform="matrix(1 8.74228e-08 8.74228e-08 -1 14.6251 16.6583)" fill="#E43625"/>
<ellipse cx="1.00877" cy="1.01" rx="1.00877" ry="1.01" transform="matrix(1 8.74228e-08 8.74228e-08 -1 14.6251 2.51764)" fill="#E43625"/>
<ellipse cx="1.00877" cy="1.01" rx="1.00877" ry="1.01" transform="matrix(1 8.74228e-08 8.74228e-08 -1 28.7422 101.498)" fill="#E43625"/>
<ellipse cx="1.00877" cy="1.01" rx="1.00877" ry="1.01" transform="matrix(1 8.74228e-08 8.74228e-08 -1 28.7462 87.3575)" fill="#E43625"/>
<ellipse cx="1.00877" cy="1.01" rx="1.00877" ry="1.01" transform="matrix(1 8.74228e-08 8.74228e-08 -1 28.7462 73.2168)" fill="#E43625"/>
<ellipse cx="1.00877" cy="1.01" rx="1.00877" ry="1.01" transform="matrix(1 8.74228e-08 8.74228e-08 -1 28.7462 59.0801)" fill="#E43625"/>
<ellipse cx="1.00877" cy="1.01" rx="1.00877" ry="1.01" transform="matrix(1 8.74228e-08 8.74228e-08 -1 28.7462 44.9395)" fill="#E43625"/>
<ellipse cx="1.00877" cy="1.01" rx="1.00877" ry="1.01" transform="matrix(1 8.74228e-08 8.74228e-08 -1 28.7462 30.7989)" fill="#E43625"/>
<ellipse cx="1.00877" cy="1.01" rx="1.00877" ry="1.01" transform="matrix(1 8.74228e-08 8.74228e-08 -1 28.7462 16.6583)" fill="#E43625"/>
<ellipse cx="1.00877" cy="1.01" rx="1.00877" ry="1.01" transform="matrix(1 8.74228e-08 8.74228e-08 -1 28.7462 2.51764)" fill="#E43625"/>
<ellipse cx="1.00877" cy="1.01" rx="1.00877" ry="1.01" transform="matrix(1 8.74228e-08 8.74228e-08 -1 42.8672 101.498)" fill="#E43625"/>
<ellipse cx="1.00877" cy="1.01" rx="1.00877" ry="1.01" transform="matrix(1 8.74228e-08 8.74228e-08 -1 42.8712 87.3575)" fill="#E43625"/>
<ellipse cx="1.00877" cy="1.01" rx="1.00877" ry="1.01" transform="matrix(1 8.74228e-08 8.74228e-08 -1 42.8712 73.2168)" fill="#E43625"/>
<ellipse cx="1.00877" cy="1.01" rx="1.00877" ry="1.01" transform="matrix(1 8.74228e-08 8.74228e-08 -1 42.8712 59.0801)" fill="#E43625"/>
<ellipse cx="1.00877" cy="1.01" rx="1.00877" ry="1.01" transform="matrix(1 8.74228e-08 8.74228e-08 -1 42.8712 44.9395)" fill="#E43625"/>
<ellipse cx="1.00877" cy="1.01" rx="1.00877" ry="1.01" transform="matrix(1 8.74228e-08 8.74228e-08 -1 42.8712 30.7989)" fill="#E43625"/>
<ellipse cx="1.00877" cy="1.01" rx="1.00877" ry="1.01" transform="matrix(1 8.74228e-08 8.74228e-08 -1 42.8712 16.6583)" fill="#E43625"/>
<ellipse cx="1.00877" cy="1.01" rx="1.00877" ry="1.01" transform="matrix(1 8.74228e-08 8.74228e-08 -1 42.8712 2.51764)" fill="#E43625"/>
<ellipse cx="1.00877" cy="1.01" rx="1.00877" ry="1.01" transform="matrix(1 8.74228e-08 8.74228e-08 -1 56.9922 101.498)" fill="#E43625"/>
<ellipse cx="1.00877" cy="1.01" rx="1.00877" ry="1.01" transform="matrix(1 8.74228e-08 8.74228e-08 -1 56.9922 87.3575)" fill="#E43625"/>
<ellipse cx="1.00877" cy="1.01" rx="1.00877" ry="1.01" transform="matrix(1 8.74228e-08 8.74228e-08 -1 56.9922 73.2168)" fill="#E43625"/>
<ellipse cx="1.00877" cy="1.01" rx="1.00877" ry="1.01" transform="matrix(1 8.74228e-08 8.74228e-08 -1 56.9922 59.0801)" fill="#E43625"/>
<ellipse cx="1.00877" cy="1.01" rx="1.00877" ry="1.01" transform="matrix(1 8.74228e-08 8.74228e-08 -1 56.9922 44.9395)" fill="#E43625"/>
<ellipse cx="1.00877" cy="1.01" rx="1.00877" ry="1.01" transform="matrix(1 8.74228e-08 8.74228e-08 -1 56.9922 30.7989)" fill="#E43625"/>
<ellipse cx="1.00877" cy="1.01" rx="1.00877" ry="1.01" transform="matrix(1 8.74228e-08 8.74228e-08 -1 56.9922 16.6583)" fill="#E43625"/>
<ellipse cx="1.00877" cy="1.01" rx="1.00877" ry="1.01" transform="matrix(1 8.74228e-08 8.74228e-08 -1 56.9922 2.51764)" fill="#E43625"/>
<ellipse cx="1.00877" cy="1.01" rx="1.00877" ry="1.01" transform="matrix(1 8.74228e-08 8.74228e-08 -1 71.1133 101.498)" fill="#E43625"/>
<ellipse cx="1.00877" cy="1.01" rx="1.00877" ry="1.01" transform="matrix(1 8.74228e-08 8.74228e-08 -1 99.3594 101.498)" fill="#E43625"/>
<ellipse cx="1.00877" cy="1.01" rx="1.00877" ry="1.01" transform="matrix(1 8.74228e-08 8.74228e-08 -1 71.1133 87.3575)" fill="#E43625"/>
<ellipse cx="1.00877" cy="1.01" rx="1.00877" ry="1.01" transform="matrix(1 8.74228e-08 8.74228e-08 -1 99.3594 87.3575)" fill="#E43625"/>
<ellipse cx="1.00877" cy="1.01" rx="1.00877" ry="1.01" transform="matrix(1 8.74228e-08 8.74228e-08 -1 71.1133 73.2168)" fill="#E43625"/>
<ellipse cx="1.00877" cy="1.01" rx="1.00877" ry="1.01" transform="matrix(1 8.74228e-08 8.74228e-08 -1 99.3594 73.2168)" fill="#E43625"/>
<ellipse cx="1.00877" cy="1.01" rx="1.00877" ry="1.01" transform="matrix(1 8.74228e-08 8.74228e-08 -1 71.1133 59.0801)" fill="#E43625"/>
<ellipse cx="1.00877" cy="1.01" rx="1.00877" ry="1.01" transform="matrix(1 8.74228e-08 8.74228e-08 -1 99.3594 59.0801)" fill="#E43625"/>
<ellipse cx="1.00877" cy="1.01" rx="1.00877" ry="1.01" transform="matrix(1 8.74228e-08 8.74228e-08 -1 71.1133 44.9395)" fill="#E43625"/>
<ellipse cx="1.00877" cy="1.01" rx="1.00877" ry="1.01" transform="matrix(1 8.74228e-08 8.74228e-08 -1 99.3594 44.9395)" fill="#E43625"/>
<ellipse cx="1.00877" cy="1.01" rx="1.00877" ry="1.01" transform="matrix(1 8.74228e-08 8.74228e-08 -1 71.1133 30.7989)" fill="#E43625"/>
<ellipse cx="1.00877" cy="1.01" rx="1.00877" ry="1.01" transform="matrix(1 8.74228e-08 8.74228e-08 -1 99.3594 30.7989)" fill="#E43625"/>
<ellipse cx="1.00877" cy="1.01" rx="1.00877" ry="1.01" transform="matrix(1 8.74228e-08 8.74228e-08 -1 71.1133 16.6583)" fill="#E43625"/>
<ellipse cx="1.00877" cy="1.01" rx="1.00877" ry="1.01" transform="matrix(1 8.74228e-08 8.74228e-08 -1 99.3594 16.6583)" fill="#E43625"/>
<ellipse cx="1.00877" cy="1.01" rx="1.00877" ry="1.01" transform="matrix(1 8.74228e-08 8.74228e-08 -1 71.1133 2.51764)" fill="#E43625"/>
<ellipse cx="1.00877" cy="1.01" rx="1.00877" ry="1.01" transform="matrix(1 8.74228e-08 8.74228e-08 -1 99.3594 2.51764)" fill="#E43625"/>
<ellipse cx="1.00877" cy="1.01" rx="1.00877" ry="1.01" transform="matrix(1 8.74228e-08 8.74228e-08 -1 85.2344 101.498)" fill="#E43625"/>
<ellipse cx="1.00877" cy="1.01" rx="1.00877" ry="1.01" transform="matrix(1 8.74228e-08 8.74228e-08 -1 113.484 101.498)" fill="#E43625"/>
<ellipse cx="1.00877" cy="1.01" rx="1.00877" ry="1.01" transform="matrix(1 8.74228e-08 8.74228e-08 -1 85.2383 87.3575)" fill="#E43625"/>
<ellipse cx="1.00877" cy="1.01" rx="1.00877" ry="1.01" transform="matrix(1 8.74228e-08 8.74228e-08 -1 113.484 87.3575)" fill="#E43625"/>
<ellipse cx="1.00877" cy="1.01" rx="1.00877" ry="1.01" transform="matrix(1 8.74228e-08 8.74228e-08 -1 85.2383 73.2168)" fill="#E43625"/>
<ellipse cx="1.00877" cy="1.01" rx="1.00877" ry="1.01" transform="matrix(1 8.74228e-08 8.74228e-08 -1 113.484 73.2168)" fill="#E43625"/>
<ellipse cx="1.00877" cy="1.01" rx="1.00877" ry="1.01" transform="matrix(1 8.74228e-08 8.74228e-08 -1 85.2383 59.0801)" fill="#E43625"/>
<ellipse cx="1.00877" cy="1.01" rx="1.00877" ry="1.01" transform="matrix(1 8.74228e-08 8.74228e-08 -1 113.484 59.0801)" fill="#E43625"/>
<ellipse cx="1.00877" cy="1.01" rx="1.00877" ry="1.01" transform="matrix(1 8.74228e-08 8.74228e-08 -1 85.2383 44.9395)" fill="#E43625"/>
<ellipse cx="1.00877" cy="1.01" rx="1.00877" ry="1.01" transform="matrix(1 8.74228e-08 8.74228e-08 -1 113.484 44.9395)" fill="#E43625"/>
<ellipse cx="1.00877" cy="1.01" rx="1.00877" ry="1.01" transform="matrix(1 8.74228e-08 8.74228e-08 -1 85.2383 30.7988)" fill="#E43625"/>
<ellipse cx="1.00877" cy="1.01" rx="1.00877" ry="1.01" transform="matrix(1 8.74228e-08 8.74228e-08 -1 113.484 30.7989)" fill="#E43625"/>
<ellipse cx="1.00877" cy="1.01" rx="1.00877" ry="1.01" transform="matrix(1 8.74228e-08 8.74228e-08 -1 85.2383 16.6582)" fill="#E43625"/>
<ellipse cx="1.00877" cy="1.01" rx="1.00877" ry="1.01" transform="matrix(1 8.74228e-08 8.74228e-08 -1 113.484 16.6583)" fill="#E43625"/>
<ellipse cx="1.00877" cy="1.01" rx="1.00877" ry="1.01" transform="matrix(1 8.74228e-08 8.74228e-08 -1 85.2383 2.51758)" fill="#E43625"/>
<ellipse cx="1.00877" cy="1.01" rx="1.00877" ry="1.01" transform="matrix(1 8.74228e-08 8.74228e-08 -1 113.484 2.51764)" fill="#E43625"/>
</g>
<defs>
<clipPath id="clip0_1000_17057">
<rect width="146" height="116" fill="white" transform="translate(116) rotate(90)"/>
</clipPath>
</defs>
</svg>
