<svg width="120" height="48" viewBox="0 0 120 48" fill="none" xmlns="http://www.w3.org/2000/svg">
<path d="M18.5 30C26.7843 30 33.5 23.2843 33.5 15C33.5 6.71573 26.7843 0 18.5 0C10.2157 0 3.5 6.71573 3.5 15C3.5 23.2843 10.2157 30 18.5 30Z" fill="#1D1D1B"/>
<path d="M18.6737 10.5718C16.1891 10.5718 14.1758 12.5851 14.1758 15.0697C14.1758 17.5543 16.1891 19.5676 18.6737 19.5676C21.1583 19.5676 23.1716 17.5543 23.1716 15.0697C23.1686 12.5851 21.1553 10.5718 18.6737 10.5718ZM18.6737 17.2918C17.4448 17.2918 16.4516 16.2956 16.4516 15.0697C16.4516 13.8408 17.4478 12.8476 18.6737 12.8476C19.8996 12.8476 20.8958 13.8438 20.8958 15.0697C20.8958 16.2956 19.8996 17.2918 18.6737 17.2918Z" fill="#E43625"/>
<path d="M22.3514 1.95417C21.4149 1.00268 20.1144 0.412109 18.6738 0.412109C17.2331 0.412109 15.9327 1.00268 14.9961 1.95417H22.3514Z" fill="#EE7F25"/>
<path d="M31.5657 18.663C32.5172 17.7264 33.1077 16.4259 33.1077 14.9853C33.1077 13.5446 32.5172 12.2442 31.5657 11.3076V18.663Z" fill="#FFCE1B"/>
<path d="M5.60309 11.3076C4.65161 12.2442 4.06104 13.5446 4.06104 14.9853C4.06104 16.4259 4.65161 17.7264 5.60309 18.663V11.3076Z" fill="#6F368B"/>
<path d="M14.9939 27.9561C15.9305 28.9075 17.2309 29.4981 18.6716 29.4981C20.1122 29.4981 21.4127 28.9075 22.3492 27.9561H14.9939Z" fill="#3091D0"/>
<path d="M23.0306 4.57056C22.1149 3.12693 20.5073 2.1665 18.6729 2.1665C16.8385 2.1665 15.2309 3.12693 14.3152 4.57056H23.0306Z" fill="#3091D0"/>
<path d="M28.9539 19.3429C30.3975 18.4272 31.3579 16.8195 31.3579 14.9852C31.3579 13.1508 30.3975 11.5431 28.9539 10.6274V19.3429Z" fill="#6F368B"/>
<path d="M8.22705 10.6274C6.78343 11.5431 5.823 13.1508 5.823 14.9852C5.823 16.8195 6.78343 18.4272 8.22705 19.3429V10.6274Z" fill="#FFCE1B"/>
<path d="M14.3152 25.3325C15.2309 26.7761 16.8385 27.7366 18.6729 27.7366C20.5073 27.7366 22.1149 26.7761 23.0306 25.3325H14.3152Z" fill="#54AD47"/>
<path d="M13.5551 22.2752C12.3172 22.2006 11.318 21.2492 11.1749 20.0322H8.56201C8.71413 22.6838 10.8676 24.7956 13.5372 24.8851L13.5551 22.2752Z" fill="#6F368B"/>
<path d="M25.9291 19.9561C25.8546 21.1939 24.9031 22.1931 23.6862 22.3362V24.9491C26.3378 24.797 28.4495 22.6435 28.539 19.974L25.9291 19.9561Z" fill="#EE7F25"/>
<path d="M23.547 7.53027C24.7848 7.60484 25.784 8.55632 25.9272 9.77326H28.54C28.3879 7.12164 26.2344 5.00989 23.5649 4.92041L23.547 7.53027Z" fill="#FFCE1B"/>
<path d="M11.1719 9.84362C11.2464 8.6058 12.1979 7.6066 13.4149 7.46343V4.85059C10.7632 5.0027 8.65149 7.15621 8.56201 9.82573L11.1719 9.84362Z" fill="#E43625"/>
<path d="M8.36903 5.51367L8.26762 9.73419L5.83374 9.82367L5.88445 8.58287C5.88445 8.58287 6.73452 6.61727 8.36903 5.51367Z" fill="#FFCE1B"/>
<path d="M28.8157 5.48291L28.9171 9.70343L31.351 9.79291L31.3003 8.55211C31.3003 8.54912 30.4502 6.58651 28.8157 5.48291Z" fill="#3091D0"/>
<path d="M28.8157 24.0795L28.9171 19.859L31.351 19.7695L31.3003 21.0103C31.3003 21.0133 30.4502 22.9789 28.8157 24.0795Z" fill="#FFCE1B"/>
<path d="M8.36903 24.1171L8.26762 19.8966L5.83374 19.8071L5.88445 21.0479C5.88445 21.0479 6.73452 23.0135 8.36903 24.1171Z" fill="#3091D0"/>
<path d="M9.2688 4.58867C9.2688 4.58867 11.1688 2.47095 12.3857 2.15479H13.7936L13.7816 4.58867H9.2688Z" fill="#54AD47"/>
<path d="M28.1552 4.658C28.1552 4.658 26.2552 2.54029 25.0383 2.22412H23.6334L23.6454 4.658H28.1552Z" fill="#6F368B"/>
<path d="M28.1552 25.1343C28.1552 25.1343 26.2552 27.252 25.0383 27.5682H23.6334L23.6454 25.1343H28.1552Z" fill="#E43625"/>
<path d="M9.2688 25.0664C9.2688 25.0664 11.1688 27.1841 12.3857 27.5003H13.7936L13.7816 25.0664H9.2688Z" fill="#EE7F25"/>
<path d="M16.4145 15.2549H14.2073V24.03H16.4145V15.2549Z" fill="#E43625"/>
<path d="M16.1366 9.75675C16.2082 8.41156 17.3177 7.34375 18.6808 7.34375C20.0439 7.34375 21.1535 8.41156 21.2251 9.75675H23.8349C23.7604 6.97091 21.4846 4.73389 18.6808 4.73389C15.8771 4.73389 13.6013 6.97091 13.5267 9.75675H16.1366Z" fill="#EE7F25"/>
<path d="M23.7719 12.4404C25.117 12.512 26.1849 13.6216 26.1849 14.9847C26.1849 16.3478 25.117 17.4573 23.7719 17.5289V20.1388C26.5577 20.0642 28.7947 17.7884 28.7947 14.9847C28.7947 12.1809 26.5577 9.90513 23.7719 9.83057V12.4404Z" fill="#54AD47"/>
<path d="M13.4172 17.5289C12.072 17.4573 11.0041 16.3478 11.0041 14.9847C11.0041 13.6216 12.072 12.512 13.4172 12.4404V9.83057C10.6313 9.90513 8.39429 12.1809 8.39429 14.9847C8.39429 17.7884 10.6313 20.0642 13.4172 20.1388V17.5289Z" fill="#3091D0"/>
<path d="M21.1127 19.958C21.0382 21.1958 20.0867 22.195 18.8698 22.3382V24.951C21.5214 24.7989 23.6331 22.6454 23.7226 19.9759L21.1127 19.958Z" fill="#FFCE1B"/>
<path d="M51.709 14.288C51.709 17.2891 49.8514 19.2836 47.1405 19.2836C46.1794 19.2836 45.3476 18.978 44.6699 18.4284V23.0288H41.5V9.44675H44.4512L44.5374 10.1692C45.2152 9.57643 46.09 9.22754 47.1374 9.22754C49.8514 9.24915 51.709 11.3518 51.709 14.288ZM48.5206 14.288C48.5206 12.9943 47.7351 11.9662 46.5521 11.9662C45.1536 11.9662 44.5405 12.8647 44.5405 14.2664C44.5405 15.6897 45.2829 16.545 46.5521 16.545C47.732 16.545 48.5206 15.6465 48.5206 14.288Z" fill="#1D1D1B"/>
<path d="M60.4316 9.31399L60.2344 11.8766C60.1266 11.855 60.0157 11.8334 59.6429 11.8334C57.9609 11.8334 56.8027 12.7319 56.8027 14.0009V19.0829H53.6328V9.44675H56.5839L56.7164 10.6293C57.2863 9.75242 58.2259 9.22754 59.6245 9.22754C59.9479 9.22754 60.256 9.27076 60.4316 9.31399Z" fill="#1D1D1B"/>
<path d="M71.4726 14.2448C71.4726 17.181 69.3748 19.3052 66.2911 19.3052C63.1859 19.3052 61.1312 17.181 61.1312 14.2448C61.1312 11.3518 63.1859 9.22754 66.2911 9.22754C69.3748 9.22754 71.4726 11.3518 71.4726 14.2448ZM68.2812 14.2448C68.2812 12.9079 67.4956 11.9662 66.2911 11.9662C65.0681 11.9662 64.3226 12.9079 64.3226 14.2448C64.3226 15.6249 65.065 16.5666 66.2911 16.5666C67.4925 16.5666 68.2812 15.6249 68.2812 14.2448Z" fill="#1D1D1B"/>
<path d="M80.6498 18.7126C80.0368 19.0615 79.0541 19.3054 77.8958 19.3054C75.5145 19.3054 73.9619 18.0333 73.9619 15.7794V12.0312H72.5849V9.44691H73.9619V6.9707H77.1318V9.44691H80.1046V12.0096H77.1318V15.3626C77.1318 16.2395 77.6555 16.5451 78.4226 16.5451C78.8816 16.5451 79.319 16.4803 79.8858 16.2395L80.6498 18.7126Z" fill="#1D1D1B"/>
<path d="M91.273 15.1216H84.7145C85.0194 16.0417 85.8512 16.6561 87.1635 16.6561C88.214 16.6561 88.8024 16.4369 89.3261 16.085L90.6168 18.1443C89.8744 18.6908 88.7592 19.3052 86.9448 19.3052C83.5993 19.3052 81.4799 17.181 81.4799 14.2448C81.4799 11.2437 83.4699 9.22754 86.4426 9.22754C89.4585 9.22754 91.3592 11.0245 91.3592 14.2664C91.3623 14.5535 91.3192 14.9487 91.273 15.1216ZM84.7175 13.2382H88.4543C88.2571 12.3182 87.6903 11.8365 86.6398 11.8365C85.7002 11.8365 84.9794 12.2533 84.7175 13.2382Z" fill="#1D1D1B"/>
<path d="M101.742 13.4791V19.086H98.7258L98.7042 18.5148C98.0481 19.0181 97.1732 19.3022 96.2552 19.3022C94.068 19.3022 92.4753 18.0764 92.4753 16.1035C92.4753 14.0009 94.1142 12.8832 96.6064 12.8832C97.3704 12.8832 98.0943 13.0592 98.6611 13.4297V13.3216C98.6611 12.2471 97.9618 11.6358 96.2121 11.6358C95.1185 11.6358 94.5085 11.855 93.9602 12.0526L94.222 9.55482C94.6595 9.42205 95.5559 9.22754 96.9329 9.22754C100.146 9.23063 101.742 11.0276 101.742 13.4791ZM98.6611 16.1097C98.6611 15.628 98.2884 14.992 97.1516 14.992C96.2552 14.992 95.6668 15.4304 95.6668 16.1097C95.6668 16.7889 96.2583 17.2057 97.1516 17.2057C98.0912 17.2026 98.6611 16.7426 98.6611 16.1097Z" fill="#1D1D1B"/>
<path d="M113.5 13.2135V19.086H110.308V13.3463C110.308 12.5806 109.785 11.9446 108.734 11.9446C107.838 11.9446 107.182 12.5158 107.182 13.3679V19.086H104.012V9.44675H106.984L107.071 10.2804C107.573 9.64436 108.405 9.22754 109.671 9.22754C112.191 9.22754 113.5 10.7157 113.5 13.2135Z" fill="#1D1D1B"/>
<path d="M0.187988 41L1.01782 37.0737H3.10449L2.9917 37.6162H1.53882L1.28101 38.8435H2.63721L2.51904 39.386H1.16284L0.821777 41H0.187988ZM4.15186 41.0483C3.92627 41.0483 3.72933 41.0018 3.56104 40.9087C3.39274 40.8156 3.26204 40.684 3.16895 40.5139C3.07764 40.342 3.03198 40.1388 3.03198 39.9043C3.03198 39.7056 3.05257 39.5122 3.09375 39.3242C3.13672 39.1362 3.19938 38.9608 3.28174 38.7979C3.3641 38.6349 3.46704 38.4926 3.59058 38.3708C3.71411 38.2473 3.85734 38.1515 4.02026 38.0835C4.18319 38.0137 4.3658 37.9788 4.56812 37.9788C4.79907 37.9788 4.9978 38.0253 5.16431 38.1184C5.33081 38.2115 5.45882 38.3449 5.54834 38.5186C5.63786 38.6922 5.68262 38.8999 5.68262 39.1416C5.68262 39.335 5.66203 39.5238 5.62085 39.7083C5.58146 39.8927 5.52148 40.0663 5.44092 40.2292C5.36035 40.3904 5.2583 40.5327 5.13477 40.6562C5.01302 40.778 4.86979 40.8738 4.70508 40.9436C4.54215 41.0134 4.35775 41.0483 4.15186 41.0483ZM4.19751 40.5327C4.29777 40.5327 4.39087 40.5103 4.47681 40.4656C4.56453 40.419 4.64331 40.3537 4.71313 40.2695C4.78296 40.1836 4.84204 40.0824 4.89038 39.9661C4.94051 39.8479 4.979 39.7172 5.00586 39.574C5.03271 39.4307 5.04614 39.2777 5.04614 39.1147C5.04614 39.0055 5.03003 38.9044 4.9978 38.8113C4.96558 38.7164 4.91187 38.6403 4.83667 38.583C4.76326 38.5239 4.66479 38.4944 4.54126 38.4944C4.43026 38.4944 4.32821 38.5212 4.23511 38.575C4.1438 38.6269 4.06234 38.6994 3.99072 38.7925C3.9209 38.8856 3.86182 38.993 3.81348 39.1147C3.76514 39.2347 3.72843 39.3636 3.70337 39.5015C3.6783 39.6375 3.66577 39.7754 3.66577 39.915C3.66577 40.1138 3.71053 40.2668 3.80005 40.3743C3.89136 40.4799 4.02384 40.5327 4.19751 40.5327ZM6.06396 41L6.69507 38.0271H7.18652L7.12207 38.5884H7.15161C7.2286 38.4738 7.31185 38.37 7.40137 38.2769C7.49268 38.1838 7.59383 38.1095 7.70483 38.054C7.81584 37.9985 7.93937 37.9707 8.07544 37.9707C8.12378 37.9707 8.17391 37.9743 8.22583 37.9814C8.27954 37.9868 8.32609 37.9949 8.36548 38.0056L8.22852 38.5964C8.18913 38.5857 8.14616 38.5767 8.09961 38.5696C8.05306 38.5624 8.00382 38.5588 7.9519 38.5588C7.83374 38.5588 7.72274 38.5866 7.6189 38.6421C7.51506 38.6976 7.42106 38.7746 7.33691 38.873C7.25277 38.9715 7.18026 39.087 7.11938 39.2195C7.05851 39.3502 7.01107 39.4925 6.97705 39.6465L6.69238 41H6.06396ZM8.30908 41L8.94019 38.0271H9.43164L9.36719 38.5884H9.39404C9.46387 38.4827 9.54443 38.3834 9.63574 38.2903C9.72884 38.1954 9.83358 38.1184 9.94995 38.0593C10.0681 38.0002 10.2006 37.9707 10.3474 37.9707C10.5551 37.9707 10.7135 38.028 10.8228 38.1426C10.9338 38.2572 11.0027 38.4138 11.0295 38.6125H11.051C11.1244 38.498 11.2095 38.3923 11.3062 38.2957C11.4046 38.199 11.5147 38.1211 11.6365 38.062C11.76 38.0011 11.8943 37.9707 12.0393 37.9707C12.2792 37.9707 12.4609 38.0405 12.5845 38.1802C12.708 38.3198 12.7698 38.515 12.7698 38.7656C12.7698 38.8408 12.7644 38.9178 12.7537 38.9966C12.7447 39.0754 12.7304 39.1568 12.7107 39.241L12.3401 41H11.7117L12.0957 39.1953C12.11 39.1255 12.1208 39.0628 12.1279 39.0073C12.1369 38.95 12.1414 38.8963 12.1414 38.8462C12.1414 38.7298 12.1136 38.6412 12.0581 38.5803C12.0044 38.5177 11.922 38.4863 11.811 38.4863C11.7179 38.4863 11.6257 38.5141 11.5344 38.5696C11.4449 38.6251 11.3599 38.7056 11.2793 38.8113C11.1987 38.9169 11.1271 39.0449 11.0645 39.1953C11.0018 39.3439 10.9508 39.5122 10.9114 39.7002L10.6375 41H10.0117L10.3904 39.2007C10.4065 39.1291 10.4181 39.0646 10.4253 39.0073C10.4325 38.95 10.436 38.8999 10.436 38.8569C10.436 38.737 10.4101 38.6457 10.3582 38.583C10.308 38.5186 10.2275 38.4863 10.1165 38.4863C10.0234 38.4863 9.93115 38.5141 9.83984 38.5696C9.74854 38.6251 9.6626 38.7065 9.58203 38.814C9.50146 38.9214 9.42896 39.0521 9.3645 39.2061C9.30005 39.3582 9.24723 39.5328 9.20605 39.7297L8.9375 41H8.30908ZM14.4509 41.0537C14.2236 41.0537 14.0248 41.0107 13.8547 40.9248C13.6864 40.8371 13.5557 40.7091 13.4626 40.5408C13.3713 40.3707 13.3257 40.163 13.3257 39.9177C13.3257 39.6742 13.3606 39.437 13.4304 39.2061C13.5002 38.9733 13.6032 38.7638 13.7393 38.5776C13.8753 38.3914 14.0409 38.2437 14.2361 38.1345C14.4312 38.0253 14.6532 37.9707 14.9021 37.9707C15.2065 37.9707 15.4347 38.0396 15.5869 38.1775C15.7409 38.3136 15.8179 38.4944 15.8179 38.72C15.8179 38.8739 15.783 39.0145 15.7131 39.1416C15.6433 39.2687 15.5368 39.3788 15.3936 39.4719C15.2521 39.5632 15.0722 39.634 14.8538 39.6841C14.6371 39.7342 14.382 39.7593 14.0884 39.7593H13.9675C13.9657 39.7861 13.9639 39.8139 13.9622 39.8425C13.9604 39.8694 13.9595 39.8962 13.9595 39.9231C13.9595 40.1218 14.0114 40.2785 14.1152 40.3931C14.2191 40.5059 14.3704 40.5623 14.5691 40.5623C14.7195 40.5623 14.8582 40.5435 14.9854 40.5059C15.1125 40.4683 15.2548 40.4119 15.4124 40.3367V40.8335C15.2673 40.9033 15.1205 40.9579 14.9719 40.9973C14.8233 41.0349 14.6497 41.0537 14.4509 41.0537ZM14.0454 39.3027H14.1367C14.3551 39.3027 14.5449 39.2821 14.7061 39.241C14.8672 39.198 14.9916 39.1353 15.0793 39.053C15.1671 38.9688 15.2109 38.8668 15.2109 38.7468C15.2109 38.6537 15.1814 38.5812 15.1223 38.5293C15.065 38.4756 14.9791 38.4487 14.8645 38.4487C14.7517 38.4487 14.6407 38.4836 14.5315 38.5535C14.4223 38.6215 14.3247 38.72 14.2388 38.8489C14.1528 38.976 14.0884 39.1273 14.0454 39.3027ZM16.1025 41L16.7336 38.0271H17.2251L17.1606 38.5884H17.1902C17.2672 38.4738 17.3504 38.37 17.4399 38.2769C17.5312 38.1838 17.6324 38.1095 17.7434 38.054C17.8544 37.9985 17.9779 37.9707 18.114 37.9707C18.1624 37.9707 18.2125 37.9743 18.2644 37.9814C18.3181 37.9868 18.3647 37.9949 18.4041 38.0056L18.2671 38.5964C18.2277 38.5857 18.1847 38.5767 18.1382 38.5696C18.0916 38.5624 18.0424 38.5588 17.9905 38.5588C17.8723 38.5588 17.7613 38.5866 17.6575 38.6421C17.5536 38.6976 17.4596 38.7746 17.3755 38.873C17.2913 38.9715 17.2188 39.087 17.158 39.2195C17.0971 39.3502 17.0496 39.4925 17.0156 39.6465L16.731 41H16.1025ZM18.345 41L19.2339 36.8213H19.8596L18.9734 41H18.345ZM19.6636 42.3213C19.5723 42.3213 19.498 42.3159 19.4407 42.3052C19.3816 42.2944 19.3279 42.2819 19.2795 42.2676V41.7654C19.3279 41.7761 19.3789 41.7851 19.4326 41.7922C19.4863 41.8012 19.5454 41.8057 19.6099 41.8057C19.7692 41.8057 19.9026 41.7573 20.01 41.6606C20.1192 41.5658 20.2195 41.4342 20.3108 41.2659L20.4478 41.0161L20.002 38.0271H20.625L20.8022 39.4773C20.8148 39.5776 20.8246 39.685 20.8318 39.7996C20.8407 39.9141 20.847 40.0251 20.8506 40.1326C20.8542 40.2382 20.856 40.3277 20.856 40.4011H20.8748C20.8998 40.3403 20.9312 40.2633 20.9688 40.1702C21.0063 40.0771 21.0484 39.9777 21.095 39.8721C21.1415 39.7664 21.1881 39.668 21.2346 39.5767L22.0242 38.0271H22.7036L20.8479 41.47C20.7458 41.6597 20.6357 41.8182 20.5176 41.9453C20.4012 42.0724 20.2732 42.1664 20.1335 42.2273C19.9939 42.29 19.8372 42.3213 19.6636 42.3213ZM24.0437 41L24.8735 37.0737H25.5906L26.6702 40.1621H26.6863C26.6988 40.0798 26.7149 39.9786 26.7346 39.8586C26.7543 39.7369 26.7767 39.6107 26.8018 39.48C26.8268 39.3493 26.851 39.2284 26.8743 39.1174L27.3093 37.0737H27.8921L27.0623 41H26.364L25.2603 37.866H25.2415C25.2361 37.9071 25.2271 37.9698 25.2146 38.054C25.2021 38.1363 25.1868 38.2312 25.1689 38.3386C25.1528 38.446 25.1349 38.5553 25.1152 38.6663C25.0955 38.7773 25.075 38.8802 25.0535 38.9751L24.6265 41H24.0437ZM28.918 41.0537C28.721 41.0537 28.5447 41.0358 28.3889 41C28.2349 40.9642 28.098 40.9123 27.978 40.8442V40.2534C28.1159 40.3268 28.2618 40.3886 28.4158 40.4387C28.5715 40.4871 28.7407 40.5112 28.9233 40.5112C29.0308 40.5112 29.1319 40.5005 29.2268 40.479C29.3217 40.4557 29.4058 40.4199 29.4792 40.3716C29.5527 40.3232 29.6099 40.2624 29.6511 40.189C29.6923 40.1138 29.7129 40.0251 29.7129 39.9231C29.7129 39.8193 29.6914 39.7297 29.6484 39.6545C29.6055 39.5793 29.5419 39.5086 29.4578 39.4424C29.3736 39.3743 29.268 39.3009 29.1409 39.2222C29.0191 39.1434 28.9054 39.0566 28.7998 38.9617C28.6942 38.8668 28.6091 38.7567 28.5447 38.6313C28.4802 38.5042 28.448 38.3538 28.448 38.1802C28.448 38.0011 28.4802 37.84 28.5447 37.6968C28.6109 37.5535 28.7031 37.4318 28.8213 37.3315C28.9412 37.2295 29.0809 37.1516 29.2402 37.0979C29.4014 37.0442 29.5759 37.0173 29.7639 37.0173C29.968 37.0173 30.1515 37.0388 30.3145 37.0818C30.4774 37.123 30.6349 37.1838 30.7871 37.2644L30.5535 37.7693C30.4335 37.7102 30.3064 37.6619 30.1721 37.6243C30.0396 37.5849 29.9036 37.5652 29.7639 37.5652C29.6708 37.5652 29.584 37.5777 29.5034 37.6028C29.4246 37.6278 29.3557 37.6646 29.2966 37.7129C29.2375 37.7612 29.191 37.8212 29.157 37.8928C29.1248 37.9626 29.1086 38.0432 29.1086 38.1345C29.1086 38.2384 29.1292 38.3261 29.1704 38.3977C29.2116 38.4693 29.2716 38.5356 29.3503 38.5964C29.4291 38.6555 29.5249 38.72 29.6377 38.7898C29.7899 38.8847 29.9206 38.9823 30.0298 39.0825C30.139 39.1828 30.2222 39.2947 30.2795 39.4182C30.3368 39.5417 30.3655 39.6877 30.3655 39.856C30.3655 40.0583 30.3288 40.2346 30.2554 40.385C30.1838 40.5336 30.0817 40.658 29.9492 40.7583C29.8185 40.8568 29.6654 40.9311 29.49 40.9812C29.3145 41.0295 29.1239 41.0537 28.918 41.0537ZM30.9053 41L31.7351 37.0737H32.7234C33.2032 37.0737 33.5765 37.2017 33.8433 37.4578C34.11 37.712 34.2434 38.0924 34.2434 38.5991C34.2434 38.882 34.2112 39.1461 34.1467 39.3914C34.0841 39.6366 33.991 39.8586 33.8674 40.0574C33.7439 40.2543 33.5908 40.4235 33.4082 40.5649C33.2256 40.7046 33.0152 40.812 32.7771 40.8872C32.539 40.9624 32.2749 41 31.9849 41H30.9053ZM31.6545 40.4602H32.0171C32.2248 40.4602 32.4119 40.4289 32.5784 40.3662C32.7467 40.3035 32.8935 40.2158 33.0188 40.103C33.1441 39.9884 33.2489 39.8542 33.333 39.7002C33.4172 39.5462 33.4798 39.3779 33.521 39.1953C33.564 39.0109 33.5854 38.8184 33.5854 38.6179C33.5854 38.2688 33.5013 38.0137 33.333 37.8525C33.1665 37.6896 32.9409 37.6082 32.6562 37.6082H32.2588L31.6545 40.4602ZM34.606 41L35.4358 37.0737H36.0723L35.3552 40.4521H36.8108L36.6953 41H34.606ZM39.9744 41.0537C39.747 41.0537 39.5483 41.0107 39.3782 40.9248C39.2099 40.8371 39.0792 40.7091 38.9861 40.5408C38.8948 40.3707 38.8491 40.163 38.8491 39.9177C38.8491 39.6742 38.884 39.437 38.9539 39.2061C39.0237 38.9733 39.1266 38.7638 39.2627 38.5776C39.3988 38.3914 39.5644 38.2437 39.7595 38.1345C39.9547 38.0253 40.1767 37.9707 40.4255 37.9707C40.7299 37.9707 40.9582 38.0396 41.1104 38.1775C41.2643 38.3136 41.3413 38.4944 41.3413 38.72C41.3413 38.8739 41.3064 39.0145 41.2366 39.1416C41.1667 39.2687 41.0602 39.3788 40.917 39.4719C40.7756 39.5632 40.5956 39.634 40.3772 39.6841C40.1606 39.7342 39.9054 39.7593 39.6118 39.7593H39.491C39.4892 39.7861 39.4874 39.8139 39.4856 39.8425C39.4838 39.8694 39.4829 39.8962 39.4829 39.9231C39.4829 40.1218 39.5348 40.2785 39.6387 40.3931C39.7425 40.5059 39.8938 40.5623 40.0925 40.5623C40.2429 40.5623 40.3817 40.5435 40.5088 40.5059C40.6359 40.4683 40.7782 40.4119 40.9358 40.3367V40.8335C40.7908 40.9033 40.644 40.9579 40.4954 40.9973C40.3468 41.0349 40.1731 41.0537 39.9744 41.0537ZM39.5688 39.3027H39.6602C39.8786 39.3027 40.0684 39.2821 40.2295 39.241C40.3906 39.198 40.5151 39.1353 40.6028 39.053C40.6905 38.9688 40.7344 38.8668 40.7344 38.7468C40.7344 38.6537 40.7048 38.5812 40.6458 38.5293C40.5885 38.4756 40.5025 38.4487 40.3879 38.4487C40.2751 38.4487 40.1641 38.4836 40.0549 38.5535C39.9457 38.6215 39.8481 38.72 39.7622 38.8489C39.6763 38.976 39.6118 39.1273 39.5688 39.3027ZM41.6287 39.7969L41.7441 39.2544H43.095L42.9795 39.7969H41.6287ZM45.0742 41.0537C44.6141 41.0537 44.2551 40.9239 43.9973 40.6643C43.7395 40.4029 43.6106 40.0305 43.6106 39.5471C43.6106 39.2696 43.6428 39.0046 43.7073 38.7522C43.7717 38.498 43.8657 38.2652 43.9893 38.054C44.1128 37.8427 44.2641 37.6592 44.4431 37.5034C44.6239 37.3477 44.8289 37.2277 45.0581 37.1436C45.2891 37.0576 45.5424 37.0146 45.8181 37.0146C46.0365 37.0146 46.2344 37.0361 46.4116 37.0791C46.5907 37.1203 46.7652 37.1812 46.9353 37.2617L46.6936 37.7988C46.5593 37.7308 46.4188 37.6753 46.272 37.6323C46.1252 37.5894 45.9667 37.5679 45.7966 37.5679C45.5603 37.5679 45.3481 37.6198 45.1602 37.7236C44.9722 37.8257 44.811 37.9662 44.6768 38.1453C44.5443 38.3243 44.4431 38.5302 44.3733 38.7629C44.3035 38.9957 44.2686 39.2419 44.2686 39.5015C44.2686 39.7056 44.3008 39.8828 44.3652 40.0332C44.4297 40.1836 44.5299 40.3 44.666 40.3823C44.8021 40.4629 44.9749 40.5032 45.1843 40.5032C45.3025 40.5032 45.409 40.4951 45.5039 40.479C45.6006 40.4611 45.6901 40.4405 45.7725 40.4172L45.9927 39.4155H45.23L45.3481 38.8704H46.7339L46.3096 40.8442C46.1377 40.9051 45.9542 40.9552 45.759 40.9946C45.5657 41.034 45.3374 41.0537 45.0742 41.0537ZM48.3882 41.0483C48.1626 41.0483 47.9657 41.0018 47.7974 40.9087C47.6291 40.8156 47.4984 40.684 47.4053 40.5139C47.314 40.342 47.2683 40.1388 47.2683 39.9043C47.2683 39.7056 47.2889 39.5122 47.3301 39.3242C47.373 39.1362 47.4357 38.9608 47.5181 38.7979C47.6004 38.6349 47.7034 38.4926 47.8269 38.3708C47.9504 38.2473 48.0937 38.1515 48.2566 38.0835C48.4195 38.0137 48.6021 37.9788 48.8044 37.9788C49.0354 37.9788 49.2341 38.0253 49.4006 38.1184C49.5671 38.2115 49.6951 38.3449 49.7847 38.5186C49.8742 38.6922 49.9189 38.8999 49.9189 39.1416C49.9189 39.335 49.8984 39.5238 49.8572 39.7083C49.8178 39.8927 49.7578 40.0663 49.6772 40.2292C49.5967 40.3904 49.4946 40.5327 49.3711 40.6562C49.2493 40.778 49.1061 40.8738 48.9414 40.9436C48.7785 41.0134 48.5941 41.0483 48.3882 41.0483ZM48.4338 40.5327C48.5341 40.5327 48.6272 40.5103 48.7131 40.4656C48.8009 40.419 48.8796 40.3537 48.9495 40.2695C49.0193 40.1836 49.0784 40.0824 49.1267 39.9661C49.1768 39.8479 49.2153 39.7172 49.2422 39.574C49.269 39.4307 49.2825 39.2777 49.2825 39.1147C49.2825 39.0055 49.2664 38.9044 49.2341 38.8113C49.2019 38.7164 49.1482 38.6403 49.073 38.583C48.9996 38.5239 48.9011 38.4944 48.7776 38.4944C48.6666 38.4944 48.5645 38.5212 48.4714 38.575C48.3801 38.6269 48.2987 38.6994 48.2271 38.7925C48.1572 38.8856 48.0981 38.993 48.0498 39.1147C48.0015 39.2347 47.9648 39.3636 47.9397 39.5015C47.9146 39.6375 47.9021 39.7754 47.9021 39.915C47.9021 40.1138 47.9469 40.2668 48.0364 40.3743C48.1277 40.4799 48.2602 40.5327 48.4338 40.5327ZM50.8025 41L50.4399 38.0271H51.063L51.2134 39.6599C51.2205 39.7297 51.2268 39.813 51.2322 39.9097C51.2375 40.0063 51.242 40.1012 51.2456 40.1943C51.251 40.2856 51.2537 40.3608 51.2537 40.4199H51.2751C51.3056 40.3465 51.3405 40.2633 51.3799 40.1702C51.4211 40.0753 51.4622 39.9831 51.5034 39.8936C51.5446 39.8022 51.5813 39.7253 51.6135 39.6626L52.4648 38.0271H53.1389L51.5249 41H50.8025ZM54.2292 41.0537C54.0019 41.0537 53.8031 41.0107 53.6331 40.9248C53.4648 40.8371 53.3341 40.7091 53.241 40.5408C53.1497 40.3707 53.104 40.163 53.104 39.9177C53.104 39.6742 53.1389 39.437 53.2087 39.2061C53.2786 38.9733 53.3815 38.7638 53.5176 38.5776C53.6536 38.3914 53.8193 38.2437 54.0144 38.1345C54.2096 38.0253 54.4316 37.9707 54.6804 37.9707C54.9848 37.9707 55.2131 38.0396 55.3652 38.1775C55.5192 38.3136 55.5962 38.4944 55.5962 38.72C55.5962 38.8739 55.5613 39.0145 55.4915 39.1416C55.4216 39.2687 55.3151 39.3788 55.1719 39.4719C55.0304 39.5632 54.8505 39.634 54.6321 39.6841C54.4154 39.7342 54.1603 39.7593 53.8667 39.7593H53.7458C53.7441 39.7861 53.7423 39.8139 53.7405 39.8425C53.7387 39.8694 53.7378 39.8962 53.7378 39.9231C53.7378 40.1218 53.7897 40.2785 53.8936 40.3931C53.9974 40.5059 54.1487 40.5623 54.3474 40.5623C54.4978 40.5623 54.6366 40.5435 54.7637 40.5059C54.8908 40.4683 55.0331 40.4119 55.1907 40.3367V40.8335C55.0457 40.9033 54.8988 40.9579 54.7502 40.9973C54.6016 41.0349 54.428 41.0537 54.2292 41.0537ZM53.8237 39.3027H53.915C54.1335 39.3027 54.3232 39.2821 54.4844 39.241C54.6455 39.198 54.7699 39.1353 54.8577 39.053C54.9454 38.9688 54.9893 38.8668 54.9893 38.7468C54.9893 38.6537 54.9597 38.5812 54.9006 38.5293C54.8433 38.4756 54.7574 38.4487 54.6428 38.4487C54.53 38.4487 54.419 38.4836 54.3098 38.5535C54.2006 38.6215 54.103 38.72 54.0171 38.8489C53.9312 38.976 53.8667 39.1273 53.8237 39.3027ZM55.8809 41L56.512 38.0271H57.0034L56.939 38.5884H56.9685C57.0455 38.4738 57.1287 38.37 57.2183 38.2769C57.3096 38.1838 57.4107 38.1095 57.5217 38.054C57.6327 37.9985 57.7563 37.9707 57.8923 37.9707C57.9407 37.9707 57.9908 37.9743 58.0427 37.9814C58.0964 37.9868 58.143 37.9949 58.1824 38.0056L58.0454 38.5964C58.006 38.5857 57.9631 38.5767 57.9165 38.5696C57.87 38.5624 57.8207 38.5588 57.7688 38.5588C57.6506 38.5588 57.5396 38.5866 57.4358 38.6421C57.3319 38.6976 57.238 38.7746 57.1538 38.873C57.0697 38.9715 56.9972 39.087 56.9363 39.2195C56.8754 39.3502 56.828 39.4925 56.7939 39.6465L56.5093 41H55.8809ZM58.1152 41L58.749 38.019H59.2566L59.1921 38.5803H59.2083C59.2799 38.4747 59.3631 38.3753 59.458 38.2822C59.5529 38.1873 59.6603 38.1104 59.7803 38.0513C59.902 37.9922 60.0381 37.9626 60.1885 37.9626C60.3532 37.9626 60.4928 37.9949 60.6074 38.0593C60.722 38.1238 60.8088 38.216 60.8679 38.3359C60.927 38.4559 60.9565 38.5991 60.9565 38.7656C60.9565 38.839 60.9503 38.9178 60.9377 39.002C60.927 39.0843 60.9127 39.1649 60.8948 39.2437L60.5215 41H59.8796L60.261 39.1926C60.2771 39.1228 60.2887 39.0601 60.2959 39.0046C60.3049 38.9491 60.3093 38.8972 60.3093 38.8489C60.3093 38.7307 60.2798 38.6421 60.2207 38.583C60.1634 38.5239 60.0775 38.4944 59.9629 38.4944C59.8376 38.4944 59.714 38.5427 59.5923 38.6394C59.4705 38.7361 59.3604 38.8766 59.262 39.061C59.1635 39.2454 59.0856 39.4683 59.0283 39.7297L58.7598 41H58.1152ZM62.3235 41.0537C62.1713 41.0537 62.0326 41.017 61.9072 40.9436C61.7837 40.8684 61.6852 40.7538 61.6118 40.5999C61.5384 40.4441 61.5017 40.2463 61.5017 40.0063C61.5017 39.7987 61.5232 39.5964 61.5662 39.3994C61.6109 39.2025 61.6736 39.0181 61.7542 38.8462C61.8365 38.6743 61.9359 38.523 62.0522 38.3923C62.1686 38.2598 62.3002 38.1569 62.447 38.0835C62.5938 38.0083 62.7523 37.9707 62.9224 37.9707C63.0513 37.9707 63.1641 37.9931 63.2607 38.0378C63.3574 38.0808 63.4389 38.139 63.5051 38.2124C63.5714 38.2858 63.6251 38.3673 63.6663 38.4568H63.6904L63.8516 38.0271H64.335L63.7039 41H63.2231L63.2822 40.5193H63.2607C63.1838 40.6178 63.0978 40.7073 63.0029 40.7878C62.9098 40.8684 62.8069 40.9329 62.6941 40.9812C62.5813 41.0295 62.4578 41.0537 62.3235 41.0537ZM62.5544 40.5408C62.6798 40.5408 62.7997 40.4942 62.9143 40.4011C63.0289 40.3062 63.13 40.1809 63.2178 40.0251C63.3073 39.8694 63.3735 39.6984 63.4165 39.5122C63.438 39.4227 63.4523 39.3376 63.4595 39.2571C63.4684 39.1765 63.4729 39.0959 63.4729 39.0154C63.4729 38.8596 63.4317 38.7325 63.3494 38.634C63.267 38.5356 63.1542 38.4863 63.011 38.4863C62.9125 38.4863 62.8185 38.5141 62.729 38.5696C62.6413 38.6251 62.5616 38.7021 62.49 38.8005C62.4184 38.8972 62.3557 39.0091 62.302 39.1362C62.2501 39.2633 62.2098 39.4003 62.1812 39.5471C62.1543 39.6921 62.1409 39.8398 62.1409 39.9902C62.1409 40.1711 62.1767 40.308 62.2483 40.4011C62.3217 40.4942 62.4237 40.5408 62.5544 40.5408ZM64.5552 41L65.189 38.019H65.6965L65.6321 38.5803H65.6482C65.7198 38.4747 65.8031 38.3753 65.8979 38.2822C65.9928 38.1873 66.1003 38.1104 66.2202 38.0513C66.342 37.9922 66.478 37.9626 66.6284 37.9626C66.7931 37.9626 66.9328 37.9949 67.0474 38.0593C67.1619 38.1238 67.2488 38.216 67.3079 38.3359C67.3669 38.4559 67.3965 38.5991 67.3965 38.7656C67.3965 38.839 67.3902 38.9178 67.3777 39.002C67.3669 39.0843 67.3526 39.1649 67.3347 39.2437L66.9614 41H66.3196L66.7009 39.1926C66.717 39.1228 66.7287 39.0601 66.7358 39.0046C66.7448 38.9491 66.7493 38.8972 66.7493 38.8489C66.7493 38.7307 66.7197 38.6421 66.6606 38.583C66.6034 38.5239 66.5174 38.4944 66.4028 38.4944C66.2775 38.4944 66.154 38.5427 66.0322 38.6394C65.9105 38.7361 65.8004 38.8766 65.7019 39.061C65.6034 39.2454 65.5256 39.4683 65.4683 39.7297L65.1997 41H64.5552ZM69.0454 41.0537C68.8324 41.0537 68.6426 41.0143 68.4761 40.9355C68.3096 40.8568 68.1789 40.7359 68.084 40.573C67.9891 40.4101 67.9417 40.2024 67.9417 39.95C67.9417 39.7369 67.964 39.5328 68.0088 39.3376C68.0553 39.1407 68.1225 38.9599 68.2102 38.7952C68.2979 38.6287 68.4054 38.4845 68.5325 38.3628C68.6596 38.2393 68.8046 38.1435 68.9675 38.0754C69.1305 38.0056 69.3104 37.9707 69.5073 37.9707C69.6613 37.9707 69.8054 37.9859 69.9397 38.0164C70.074 38.045 70.1975 38.0853 70.3103 38.1372L70.1223 38.634C70.0364 38.5946 69.9442 38.5606 69.8457 38.532C69.749 38.5015 69.6425 38.4863 69.5261 38.4863C69.3811 38.4863 69.2504 38.5257 69.134 38.6045C69.0177 38.6815 68.9183 38.788 68.8359 38.9241C68.7536 39.0583 68.69 39.2105 68.6453 39.3806C68.6023 39.5507 68.5808 39.7288 68.5808 39.915C68.5808 40.0475 68.6032 40.1603 68.6479 40.2534C68.6927 40.3465 68.7572 40.4181 68.8413 40.4683C68.9272 40.5166 69.0302 40.5408 69.1501 40.5408C69.2826 40.5408 69.4071 40.522 69.5234 40.4844C69.6398 40.445 69.7562 40.3966 69.8726 40.3394V40.8604C69.7616 40.9194 69.638 40.966 69.502 41C69.3659 41.0358 69.2137 41.0537 69.0454 41.0537ZM71.6477 41.0537C71.4203 41.0537 71.2216 41.0107 71.0515 40.9248C70.8832 40.8371 70.7525 40.7091 70.6594 40.5408C70.5681 40.3707 70.5225 40.163 70.5225 39.9177C70.5225 39.6742 70.5574 39.437 70.6272 39.2061C70.697 38.9733 70.8 38.7638 70.936 38.5776C71.0721 38.3914 71.2377 38.2437 71.4329 38.1345C71.628 38.0253 71.85 37.9707 72.0989 37.9707C72.4032 37.9707 72.6315 38.0396 72.7837 38.1775C72.9377 38.3136 73.0146 38.4944 73.0146 38.72C73.0146 38.8739 72.9797 39.0145 72.9099 39.1416C72.8401 39.2687 72.7336 39.3788 72.5903 39.4719C72.4489 39.5632 72.269 39.634 72.0505 39.6841C71.8339 39.7342 71.5788 39.7593 71.2852 39.7593H71.1643C71.1625 39.7861 71.1607 39.8139 71.1589 39.8425C71.1571 39.8694 71.1562 39.8962 71.1562 39.9231C71.1562 40.1218 71.2082 40.2785 71.312 40.3931C71.4159 40.5059 71.5671 40.5623 71.7659 40.5623C71.9163 40.5623 72.055 40.5435 72.1821 40.5059C72.3092 40.4683 72.4516 40.4119 72.6091 40.3367V40.8335C72.4641 40.9033 72.3173 40.9579 72.1687 40.9973C72.0201 41.0349 71.8464 41.0537 71.6477 41.0537ZM71.2422 39.3027H71.3335C71.5519 39.3027 71.7417 39.2821 71.9028 39.241C72.064 39.198 72.1884 39.1353 72.2761 39.053C72.3639 38.9688 72.4077 38.8668 72.4077 38.7468C72.4077 38.6537 72.3782 38.5812 72.3191 38.5293C72.2618 38.4756 72.1759 38.4487 72.0613 38.4487C71.9485 38.4487 71.8375 38.4836 71.7283 38.5535C71.6191 38.6215 71.5215 38.72 71.4355 38.8489C71.3496 38.976 71.2852 39.1273 71.2422 39.3027ZM74.7844 41L75.6196 37.0737H76.2534L75.4155 41H74.7844ZM76.3447 41L76.9785 38.019H77.4861L77.4216 38.5803H77.4377C77.5094 38.4747 77.5926 38.3753 77.6875 38.2822C77.7824 38.1873 77.8898 38.1104 78.0098 38.0513C78.1315 37.9922 78.2676 37.9626 78.418 37.9626C78.5827 37.9626 78.7223 37.9949 78.8369 38.0593C78.9515 38.1238 79.0383 38.216 79.0974 38.3359C79.1565 38.4559 79.186 38.5991 79.186 38.7656C79.186 38.839 79.1798 38.9178 79.1672 39.002C79.1565 39.0843 79.1422 39.1649 79.1243 39.2437L78.751 41H78.1091L78.4905 39.1926C78.5066 39.1228 78.5182 39.0601 78.5254 39.0046C78.5343 38.9491 78.5388 38.8972 78.5388 38.8489C78.5388 38.7307 78.5093 38.6421 78.4502 38.583C78.3929 38.5239 78.307 38.4944 78.1924 38.4944C78.0671 38.4944 77.9435 38.5427 77.8218 38.6394C77.7 38.7361 77.5899 38.8766 77.4915 39.061C77.393 39.2454 77.3151 39.4683 77.2578 39.7297L76.9893 41H76.3447ZM79.2773 42.3213C79.2004 42.3213 79.1261 42.315 79.0544 42.3025C78.981 42.29 78.9193 42.2756 78.8691 42.2595V41.7439C78.9229 41.7636 78.9748 41.7779 79.0249 41.7869C79.0732 41.7976 79.1243 41.803 79.178 41.803C79.2997 41.803 79.3991 41.7582 79.4761 41.6687C79.5549 41.581 79.6139 41.4467 79.6533 41.2659L80.2361 38.5051H79.7607L79.8198 38.2151L80.3381 38.019L80.3945 37.7639C80.4339 37.5813 80.484 37.4282 80.5449 37.3047C80.6076 37.1794 80.681 37.0791 80.7651 37.0039C80.8511 36.9287 80.9495 36.875 81.0605 36.8428C81.1733 36.8088 81.3005 36.7917 81.4419 36.7917C81.5493 36.7917 81.6523 36.8025 81.7507 36.824C81.851 36.8455 81.9378 36.8732 82.0112 36.9072L81.8447 37.3799C81.7928 37.3584 81.7373 37.3396 81.6782 37.3235C81.6191 37.3074 81.5538 37.2993 81.4822 37.2993C81.3551 37.2993 81.2539 37.3387 81.1787 37.4175C81.1035 37.4963 81.048 37.6225 81.0122 37.7961L80.9639 38.0271H81.5735L81.4768 38.5051H80.8618L80.2603 41.3518C80.2191 41.5416 80.1591 41.709 80.0803 41.854C80.0033 42.0008 79.8995 42.1154 79.7688 42.1978C79.6381 42.2801 79.4743 42.3213 79.2773 42.3213ZM81.4902 41L82.1213 38.0271H82.6128L82.5483 38.5884H82.5779C82.6549 38.4738 82.7381 38.37 82.8276 38.2769C82.9189 38.1838 83.0201 38.1095 83.1311 38.054C83.2421 37.9985 83.3656 37.9707 83.5017 37.9707C83.55 37.9707 83.6002 37.9743 83.6521 37.9814C83.7058 37.9868 83.7524 37.9949 83.7917 38.0056L83.6548 38.5964C83.6154 38.5857 83.5724 38.5767 83.5259 38.5696C83.4793 38.5624 83.4301 38.5588 83.3782 38.5588C83.26 38.5588 83.149 38.5866 83.0452 38.6421C82.9413 38.6976 82.8473 38.7746 82.7632 38.873C82.679 38.9715 82.6065 39.087 82.5457 39.2195C82.4848 39.3502 82.4373 39.4925 82.4033 39.6465L82.1187 41H81.4902ZM84.6833 41.0537C84.5312 41.0537 84.3924 41.017 84.2671 40.9436C84.1436 40.8684 84.0451 40.7538 83.9717 40.5999C83.8983 40.4441 83.8616 40.2463 83.8616 40.0063C83.8616 39.7987 83.8831 39.5964 83.926 39.3994C83.9708 39.2025 84.0334 39.0181 84.114 38.8462C84.1964 38.6743 84.2957 38.523 84.4121 38.3923C84.5285 38.2598 84.6601 38.1569 84.8069 38.0835C84.9537 38.0083 85.1121 37.9707 85.2822 37.9707C85.4111 37.9707 85.5239 37.9931 85.6206 38.0378C85.7173 38.0808 85.7987 38.139 85.865 38.2124C85.9312 38.2858 85.9849 38.3673 86.0261 38.4568H86.0503L86.2114 38.0271H86.6948L86.0637 41H85.583L85.6421 40.5193H85.6206C85.5436 40.6178 85.4577 40.7073 85.3628 40.7878C85.2697 40.8684 85.1667 40.9329 85.054 40.9812C84.9412 41.0295 84.8176 41.0537 84.6833 41.0537ZM84.9143 40.5408C85.0396 40.5408 85.1596 40.4942 85.2742 40.4011C85.3888 40.3062 85.4899 40.1809 85.5776 40.0251C85.6672 39.8694 85.7334 39.6984 85.7764 39.5122C85.7979 39.4227 85.8122 39.3376 85.8193 39.2571C85.8283 39.1765 85.8328 39.0959 85.8328 39.0154C85.8328 38.8596 85.7916 38.7325 85.7092 38.634C85.6269 38.5356 85.5141 38.4863 85.3708 38.4863C85.2724 38.4863 85.1784 38.5141 85.0889 38.5696C85.0011 38.6251 84.9215 38.7021 84.8499 38.8005C84.7782 38.8972 84.7156 39.0091 84.6619 39.1362C84.6099 39.2633 84.5697 39.4003 84.541 39.5471C84.5142 39.6921 84.5007 39.8398 84.5007 39.9902C84.5007 40.1711 84.5365 40.308 84.6082 40.4011C84.6816 40.4942 84.7836 40.5408 84.9143 40.5408ZM87.7073 41.0537C87.5211 41.0537 87.3582 41.0376 87.2185 41.0054C87.0806 40.9749 86.9562 40.9302 86.8452 40.8711V40.3313C86.9598 40.3993 87.0887 40.4566 87.2319 40.5032C87.377 40.5479 87.5256 40.5703 87.6777 40.5703C87.7959 40.5703 87.8988 40.5542 87.9866 40.522C88.0743 40.4897 88.1423 40.4441 88.1907 40.385C88.2408 40.3241 88.2659 40.2507 88.2659 40.1648C88.2659 40.1021 88.2515 40.0466 88.2229 39.9983C88.1943 39.95 88.145 39.9007 88.0752 39.8506C88.0054 39.8005 87.9087 39.7405 87.7852 39.6707C87.6545 39.5972 87.5435 39.5229 87.4521 39.4478C87.3626 39.3708 87.2937 39.2857 87.2454 39.1926C87.1988 39.0995 87.1755 38.9903 87.1755 38.865C87.1755 38.677 87.2185 38.5168 87.3044 38.3843C87.3922 38.25 87.5157 38.1479 87.675 38.0781C87.8362 38.0065 88.026 37.9707 88.2444 37.9707C88.4198 37.9707 88.5854 37.9913 88.7412 38.0325C88.897 38.0719 89.0411 38.1274 89.1736 38.199L88.9668 38.6663C88.8683 38.6108 88.7591 38.5633 88.6392 38.5239C88.5192 38.4827 88.3903 38.4622 88.2524 38.4622C88.1253 38.4622 88.0188 38.4917 87.9329 38.5508C87.8487 38.6099 87.8066 38.694 87.8066 38.8032C87.8066 38.8605 87.8201 38.9124 87.8469 38.959C87.8756 39.0037 87.923 39.0494 87.9893 39.0959C88.0555 39.1425 88.1459 39.1962 88.2605 39.2571C88.384 39.3251 88.4941 39.3967 88.5908 39.4719C88.6875 39.5471 88.7636 39.634 88.8191 39.7324C88.8746 39.8291 88.9023 39.9464 88.9023 40.0842C88.9023 40.2937 88.8531 40.4709 88.7546 40.616C88.658 40.7592 88.5201 40.8684 88.3411 40.9436C88.162 41.017 87.9508 41.0537 87.7073 41.0537ZM90.3311 41.0537C90.1144 41.0537 89.9381 41.0054 89.802 40.9087C89.6677 40.8102 89.6006 40.6383 89.6006 40.3931C89.6006 40.3447 89.6033 40.2919 89.6086 40.2346C89.6158 40.1755 89.6257 40.1147 89.6382 40.052L89.9658 38.5051H89.5361L89.5952 38.2043L90.1028 37.9976L90.4412 37.3691H90.8359L90.6963 38.0271H91.4536L91.3516 38.5051H90.5969L90.2666 40.0547C90.2576 40.0923 90.2496 40.1326 90.2424 40.1755C90.2371 40.2167 90.2344 40.2543 90.2344 40.2883C90.2344 40.3689 90.2568 40.4316 90.3015 40.4763C90.3463 40.5211 90.4143 40.5435 90.5056 40.5435C90.5754 40.5435 90.6426 40.5363 90.707 40.522C90.7715 40.5076 90.8422 40.4871 90.9192 40.4602V40.9355C90.8529 40.966 90.767 40.9928 90.6614 41.0161C90.5557 41.0412 90.4456 41.0537 90.3311 41.0537ZM91.4482 41L92.0793 38.0271H92.5708L92.5063 38.5884H92.5359C92.6129 38.4738 92.6961 38.37 92.7856 38.2769C92.877 38.1838 92.9781 38.1095 93.0891 38.054C93.2001 37.9985 93.3236 37.9707 93.4597 37.9707C93.5081 37.9707 93.5582 37.9743 93.6101 37.9814C93.6638 37.9868 93.7104 37.9949 93.7498 38.0056L93.6128 38.5964C93.5734 38.5857 93.5304 38.5767 93.4839 38.5696C93.4373 38.5624 93.3881 38.5588 93.3362 38.5588C93.218 38.5588 93.107 38.5866 93.0032 38.6421C92.8993 38.6976 92.8053 38.7746 92.7212 38.873C92.637 38.9715 92.5645 39.087 92.5037 39.2195C92.4428 39.3502 92.3953 39.4925 92.3613 39.6465L92.0767 41H91.4482ZM94.6145 41.0537C94.4552 41.0537 94.3191 41.0224 94.2063 40.9597C94.0953 40.8971 94.0103 40.8066 93.9512 40.6885C93.8939 40.5685 93.8652 40.4253 93.8652 40.2588C93.8652 40.1854 93.8706 40.1048 93.8813 40.0171C93.8939 39.9276 93.9091 39.8354 93.927 39.7405L94.2922 38.0271H94.9207L94.5366 39.8318C94.5241 39.9016 94.5133 39.9652 94.5044 40.0225C94.4972 40.078 94.4937 40.129 94.4937 40.1755C94.4937 40.2955 94.5214 40.3868 94.5769 40.4495C94.6342 40.5103 94.7228 40.5408 94.8428 40.5408C94.9717 40.5408 95.097 40.4924 95.2188 40.3958C95.3423 40.2973 95.4542 40.1549 95.5544 39.9688C95.6547 39.7826 95.7326 39.5579 95.7881 39.2947L96.0566 38.0271H96.6797L96.0513 41H95.5571L95.6216 40.436H95.5947C95.5231 40.5417 95.4399 40.6419 95.345 40.7368C95.2501 40.8299 95.1427 40.906 95.0227 40.9651C94.9028 41.0242 94.7667 41.0537 94.6145 41.0537ZM98.1729 41.0537C97.9598 41.0537 97.77 41.0143 97.6035 40.9355C97.437 40.8568 97.3063 40.7359 97.2114 40.573C97.1165 40.4101 97.0691 40.2024 97.0691 39.95C97.0691 39.7369 97.0915 39.5328 97.1362 39.3376C97.1828 39.1407 97.2499 38.9599 97.3376 38.7952C97.4254 38.6287 97.5328 38.4845 97.6599 38.3628C97.787 38.2393 97.932 38.1435 98.095 38.0754C98.2579 38.0056 98.4378 37.9707 98.6348 37.9707C98.7887 37.9707 98.9329 37.9859 99.0671 38.0164C99.2014 38.045 99.325 38.0853 99.4377 38.1372L99.2498 38.634C99.1638 38.5946 99.0716 38.5606 98.9731 38.532C98.8765 38.5015 98.7699 38.4863 98.6536 38.4863C98.5085 38.4863 98.3778 38.5257 98.2615 38.6045C98.1451 38.6815 98.0457 38.788 97.9634 38.9241C97.881 39.0583 97.8175 39.2105 97.7727 39.3806C97.7297 39.5507 97.7083 39.7288 97.7083 39.915C97.7083 40.0475 97.7306 40.1603 97.7754 40.2534C97.8201 40.3465 97.8846 40.4181 97.9688 40.4683C98.0547 40.5166 98.1576 40.5408 98.2776 40.5408C98.4101 40.5408 98.5345 40.522 98.6509 40.4844C98.7673 40.445 98.8836 40.3966 99 40.3394V40.8604C98.889 40.9194 98.7655 40.966 98.6294 41C98.4933 41.0358 98.3411 41.0537 98.1729 41.0537ZM100.439 41.0537C100.223 41.0537 100.046 41.0054 99.9104 40.9087C99.7761 40.8102 99.709 40.6383 99.709 40.3931C99.709 40.3447 99.7117 40.2919 99.717 40.2346C99.7242 40.1755 99.734 40.1147 99.7466 40.052L100.074 38.5051H99.6445L99.7036 38.2043L100.211 37.9976L100.55 37.3691H100.944L100.805 38.0271H101.562L101.46 38.5051H100.705L100.375 40.0547C100.366 40.0923 100.358 40.1326 100.351 40.1755C100.345 40.2167 100.343 40.2543 100.343 40.2883C100.343 40.3689 100.365 40.4316 100.41 40.4763C100.455 40.5211 100.523 40.5435 100.614 40.5435C100.684 40.5435 100.751 40.5363 100.815 40.522C100.88 40.5076 100.951 40.4871 101.028 40.4602V40.9355C100.961 40.966 100.875 40.9928 100.77 41.0161C100.664 41.0412 100.554 41.0537 100.439 41.0537ZM102.478 41.0537C102.318 41.0537 102.182 41.0224 102.07 40.9597C101.959 40.8971 101.874 40.8066 101.814 40.6885C101.757 40.5685 101.729 40.4253 101.729 40.2588C101.729 40.1854 101.734 40.1048 101.745 40.0171C101.757 39.9276 101.772 39.8354 101.79 39.7405L102.156 38.0271H102.784L102.4 39.8318C102.387 39.9016 102.377 39.9652 102.368 40.0225C102.361 40.078 102.357 40.129 102.357 40.1755C102.357 40.2955 102.385 40.3868 102.44 40.4495C102.497 40.5103 102.586 40.5408 102.706 40.5408C102.835 40.5408 102.96 40.4924 103.082 40.3958C103.206 40.2973 103.317 40.1549 103.418 39.9688C103.518 39.7826 103.596 39.5579 103.651 39.2947L103.92 38.0271H104.543L103.915 41H103.42L103.485 40.436H103.458C103.386 40.5417 103.303 40.6419 103.208 40.7368C103.113 40.8299 103.006 40.906 102.886 40.9651C102.766 41.0242 102.63 41.0537 102.478 41.0537ZM104.806 41L105.437 38.0271H105.929L105.864 38.5884H105.894C105.971 38.4738 106.054 38.37 106.144 38.2769C106.235 38.1838 106.336 38.1095 106.447 38.054C106.558 37.9985 106.682 37.9707 106.818 37.9707C106.866 37.9707 106.916 37.9743 106.968 37.9814C107.022 37.9868 107.068 37.9949 107.108 38.0056L106.971 38.5964C106.931 38.5857 106.888 38.5767 106.842 38.5696C106.795 38.5624 106.746 38.5588 106.694 38.5588C106.576 38.5588 106.465 38.5866 106.361 38.6421C106.257 38.6976 106.163 38.7746 106.079 38.873C105.995 38.9715 105.922 39.087 105.862 39.2195C105.801 39.3502 105.753 39.4925 105.719 39.6465L105.435 41H104.806ZM108.305 41.0537C108.078 41.0537 107.879 41.0107 107.709 40.9248C107.541 40.8371 107.41 40.7091 107.317 40.5408C107.226 40.3707 107.18 40.163 107.18 39.9177C107.18 39.6742 107.215 39.437 107.285 39.2061C107.355 38.9733 107.458 38.7638 107.594 38.5776C107.73 38.3914 107.895 38.2437 108.091 38.1345C108.286 38.0253 108.508 37.9707 108.757 37.9707C109.061 37.9707 109.289 38.0396 109.441 38.1775C109.595 38.3136 109.672 38.4944 109.672 38.72C109.672 38.8739 109.637 39.0145 109.568 39.1416C109.498 39.2687 109.391 39.3788 109.248 39.4719C109.107 39.5632 108.927 39.634 108.708 39.6841C108.492 39.7342 108.236 39.7593 107.943 39.7593H107.822C107.82 39.7861 107.818 39.8139 107.817 39.8425C107.815 39.8694 107.814 39.8962 107.814 39.9231C107.814 40.1218 107.866 40.2785 107.97 40.3931C108.074 40.5059 108.225 40.5623 108.424 40.5623C108.574 40.5623 108.713 40.5435 108.84 40.5059C108.967 40.4683 109.109 40.4119 109.267 40.3367V40.8335C109.122 40.9033 108.975 40.9579 108.826 40.9973C108.678 41.0349 108.504 41.0537 108.305 41.0537ZM107.9 39.3027H107.991C108.21 39.3027 108.399 39.2821 108.561 39.241C108.722 39.198 108.846 39.1353 108.934 39.053C109.022 38.9688 109.065 38.8668 109.065 38.7468C109.065 38.6537 109.036 38.5812 108.977 38.5293C108.92 38.4756 108.834 38.4487 108.719 38.4487C108.606 38.4487 108.495 38.4836 108.386 38.5535C108.277 38.6215 108.179 38.72 108.093 38.8489C108.007 38.976 107.943 39.1273 107.9 39.3027ZM111.445 41L112.275 37.0737H112.911L112.194 40.4521H113.65L113.534 41H111.445ZM115.049 41.0537C114.832 41.0537 114.656 41.0054 114.52 40.9087C114.385 40.8102 114.318 40.6383 114.318 40.3931C114.318 40.3447 114.321 40.2919 114.326 40.2346C114.334 40.1755 114.343 40.1147 114.356 40.052L114.684 38.5051H114.254L114.313 38.2043L114.821 37.9976L115.159 37.3691H115.554L115.414 38.0271H116.171L116.069 38.5051H115.315L114.984 40.0547C114.975 40.0923 114.967 40.1326 114.96 40.1755C114.955 40.2167 114.952 40.2543 114.952 40.2883C114.952 40.3689 114.975 40.4316 115.019 40.4763C115.064 40.5211 115.132 40.5435 115.223 40.5435C115.293 40.5435 115.36 40.5363 115.425 40.522C115.489 40.5076 115.56 40.4871 115.637 40.4602V40.9355C115.571 40.966 115.485 40.9928 115.379 41.0161C115.274 41.0412 115.163 41.0537 115.049 41.0537ZM117.117 41.0537C116.963 41.0537 116.823 41.017 116.698 40.9436C116.574 40.8702 116.476 40.7565 116.402 40.6025C116.329 40.4468 116.292 40.2472 116.292 40.0037C116.292 39.7996 116.313 39.5999 116.354 39.4048C116.397 39.2078 116.459 39.0234 116.539 38.8516C116.62 38.6779 116.718 38.5257 116.835 38.395C116.951 38.2625 117.083 38.1596 117.229 38.0862C117.378 38.011 117.539 37.9734 117.713 37.9734C117.842 37.9734 117.952 37.9958 118.043 38.0405C118.135 38.0853 118.212 38.1444 118.274 38.2178C118.337 38.2912 118.39 38.3708 118.433 38.4568H118.457C118.462 38.4102 118.468 38.3512 118.476 38.2795C118.485 38.2061 118.495 38.1274 118.508 38.0432C118.52 37.9573 118.536 37.874 118.553 37.7935L118.76 36.8213H119.386L118.5 41H118.008L118.067 40.5193H118.049C117.97 40.6195 117.884 40.71 117.791 40.7905C117.699 40.8711 117.598 40.9355 117.487 40.9839C117.376 41.0304 117.253 41.0537 117.117 41.0537ZM117.361 40.5408C117.445 40.5408 117.526 40.5193 117.603 40.4763C117.682 40.4333 117.754 40.3743 117.82 40.2991C117.888 40.2221 117.95 40.1344 118.006 40.0359C118.061 39.9356 118.109 39.8291 118.148 39.7163C118.187 39.6035 118.218 39.4889 118.239 39.3726C118.261 39.2562 118.271 39.1434 118.271 39.0342C118.271 38.8677 118.231 38.7352 118.151 38.6367C118.072 38.5365 117.954 38.4863 117.796 38.4863C117.694 38.4863 117.599 38.515 117.511 38.5723C117.424 38.6296 117.344 38.7074 117.272 38.8059C117.201 38.9044 117.139 39.0181 117.087 39.147C117.037 39.2741 116.999 39.4102 116.972 39.5552C116.945 39.7002 116.931 39.8452 116.931 39.9902C116.931 40.1711 116.967 40.308 117.039 40.4011C117.112 40.4942 117.22 40.5408 117.361 40.5408Z" fill="#1D1D1B"/>
</svg>
