<svg width="180" height="48" viewBox="0 0 180 48" fill="none" xmlns="http://www.w3.org/2000/svg">
<g clip-path="url(#clip0_2490_6051)">
<path d="M24 48C37.2548 48 48 37.2548 48 24C48 10.7452 37.2548 0 24 0C10.7452 0 0 10.7452 0 24C0 37.2548 10.7452 48 24 48Z" fill="#1D1D1B"/>
<path d="M24.2777 16.9146C20.3024 16.9146 17.0811 20.1359 17.0811 24.1113C17.0811 28.0866 20.3024 31.3079 24.2777 31.3079C28.2531 31.3079 31.4744 28.0866 31.4744 24.1113C31.4696 20.1359 28.2483 16.9146 24.2777 16.9146ZM24.2777 27.6667C22.3115 27.6667 20.7223 26.0727 20.7223 24.1113C20.7223 22.1451 22.3163 20.5559 24.2777 20.5559C26.2391 20.5559 27.8331 22.1498 27.8331 24.1113C27.8331 26.0727 26.2391 27.6667 24.2777 27.6667Z" fill="#E43625"/>
<path d="M30.1628 3.12665C28.6643 1.60428 26.5836 0.659363 24.2786 0.659363C21.9735 0.659363 19.8928 1.60428 18.3943 3.12665H30.1628Z" fill="#EE7F25"/>
<path d="M44.9053 29.861C46.4276 28.3625 47.3726 26.2818 47.3726 23.9767C47.3726 21.6717 46.4276 19.591 44.9053 18.0925V29.861Z" fill="#FFCE1B"/>
<path d="M3.36499 18.0925C1.84262 19.591 0.897705 21.6717 0.897705 23.9767C0.897705 26.2818 1.84262 28.3625 3.36499 29.861V18.0925Z" fill="#6F368B"/>
<path d="M18.3899 44.7294C19.8884 46.2518 21.9691 47.1967 24.2742 47.1967C26.5792 47.1967 28.6599 46.2518 30.1584 44.7294H18.3899Z" fill="#3091D0"/>
<path d="M31.2487 7.31335C29.7836 5.00354 27.2113 3.46686 24.2763 3.46686C21.3413 3.46686 18.7691 5.00354 17.304 7.31335H31.2487Z" fill="#3091D0"/>
<path d="M40.7266 30.9489C43.0364 29.4838 44.5731 26.9115 44.5731 23.9766C44.5731 21.0416 43.0364 18.4693 40.7266 17.0042V30.9489Z" fill="#6F368B"/>
<path d="M7.56255 17.0042C5.25275 18.4693 3.71606 21.0416 3.71606 23.9766C3.71606 26.9115 5.25275 29.4838 7.56255 30.9489V17.0042Z" fill="#FFCE1B"/>
<path d="M17.304 40.5327C18.7691 42.8425 21.3413 44.3791 24.2763 44.3791C27.2113 44.3791 29.7836 42.8425 31.2487 40.5327H17.304Z" fill="#54AD47"/>
<path d="M16.089 35.6408C14.1084 35.5215 12.5097 33.9991 12.2807 32.052H8.1001C8.34349 36.2946 11.7891 39.6734 16.0603 39.8166L16.089 35.6408Z" fill="#6F368B"/>
<path d="M35.8866 31.9303C35.7673 33.9108 34.245 35.5095 32.2979 35.7386V39.9192C36.5404 39.6758 39.9192 36.2302 40.0624 31.9589L35.8866 31.9303Z" fill="#EE7F25"/>
<path d="M32.0752 12.0485C34.0557 12.1678 35.6544 13.6901 35.8835 15.6372H40.0641C39.8207 11.3947 36.3751 8.01585 32.1038 7.87268L32.0752 12.0485Z" fill="#FFCE1B"/>
<path d="M12.2759 15.7505C12.3952 13.77 13.9176 12.1713 15.8647 11.9422V7.76166C11.6221 8.00505 8.24327 11.4507 8.1001 15.7219L12.2759 15.7505Z" fill="#E43625"/>
<path d="M7.78987 8.82208L7.62761 15.5749L3.7334 15.7181L3.81453 13.7328C3.81453 13.7328 5.17464 10.5878 7.78987 8.82208Z" fill="#FFCE1B"/>
<path d="M40.5046 8.77313L40.6669 15.526L44.5611 15.6691L44.48 13.6838C44.48 13.6791 43.1199 10.5389 40.5046 8.77313Z" fill="#3091D0"/>
<path d="M40.5046 38.5277L40.6669 31.7748L44.5611 31.6317L44.48 33.6169C44.48 33.6217 43.1199 36.7667 40.5046 38.5277Z" fill="#FFCE1B"/>
<path d="M7.78987 38.5874L7.62761 31.8346L3.7334 31.6914L3.81453 33.6767C3.81453 33.6767 5.17464 36.8216 7.78987 38.5874Z" fill="#3091D0"/>
<path d="M9.22925 7.34197C9.22925 7.34197 12.2692 3.95362 14.2163 3.44775H16.4689L16.4498 7.34197H9.22925Z" fill="#54AD47"/>
<path d="M39.4477 7.45299C39.4477 7.45299 36.4078 4.06464 34.4607 3.55878H32.2129L32.232 7.45299H39.4477Z" fill="#6F368B"/>
<path d="M39.4477 40.2148C39.4477 40.2148 36.4078 43.6032 34.4607 44.1091H32.2129L32.232 40.2148H39.4477Z" fill="#E43625"/>
<path d="M9.22925 40.1061C9.22925 40.1061 12.2692 43.4944 14.2163 44.0003H16.4689L16.4498 40.1061H9.22925Z" fill="#EE7F25"/>
<path d="M20.6636 24.4076H17.1321V38.4478H20.6636V24.4076Z" fill="#E43625"/>
<path d="M20.218 15.6106C20.3326 13.4582 22.1079 11.7498 24.2888 11.7498C26.4698 11.7498 28.2451 13.4582 28.3596 15.6106H32.5354C32.4161 11.1532 28.7748 7.57397 24.2888 7.57397C19.8028 7.57397 16.1615 11.1532 16.0422 15.6106H20.218Z" fill="#EE7F25"/>
<path d="M32.4348 19.9042C34.5871 20.0188 36.2956 21.7941 36.2956 23.975C36.2956 26.156 34.5871 27.9313 32.4348 28.0458V32.2216C36.8922 32.1023 40.4714 28.461 40.4714 23.975C40.4714 19.489 36.8922 15.8478 32.4348 15.7285V19.9042Z" fill="#54AD47"/>
<path d="M15.8672 28.0459C13.7148 27.9314 12.0063 26.1561 12.0063 23.9751C12.0063 21.7942 13.7148 20.0189 15.8672 19.9044V15.7286C11.4098 15.8479 7.83057 19.4892 7.83057 23.9751C7.83057 28.4611 11.4098 32.1024 15.8672 32.2217V28.0459Z" fill="#3091D0"/>
<path d="M28.1801 31.9324C28.0608 33.9129 26.5384 35.5117 24.5913 35.7407V39.9213C28.8339 39.6779 32.2127 36.2323 32.3559 31.9611L28.1801 31.9324Z" fill="#FFCE1B"/>
<path d="M74.9347 22.7915C74.9347 27.8872 71.7806 31.2739 67.1776 31.2739C65.5456 31.2739 64.1333 30.7549 62.9825 29.8217V37.6332H57.6001V14.5711H62.6111L62.7576 15.7979C63.9084 14.7913 65.3939 14.1989 67.1723 14.1989C71.7806 14.2356 74.9347 17.8058 74.9347 22.7915ZM69.5209 22.7915C69.5209 20.5948 68.1871 18.8491 66.1785 18.8491C63.8037 18.8491 62.7628 20.3747 62.7628 22.7548C62.7628 25.1716 64.0234 26.6238 66.1785 26.6238C68.1819 26.6238 69.5209 25.0982 69.5209 22.7915Z" fill="white"/>
<path d="M89.7459 14.3457L89.4111 18.697C89.228 18.6603 89.0397 18.6236 88.4068 18.6236C85.5508 18.6236 83.5841 20.1492 83.5841 22.3039V30.9332H78.2017V14.5711H83.2127L83.4376 16.579C84.4053 15.0901 86.0007 14.1989 88.3754 14.1989C88.9246 14.1989 89.4477 14.2723 89.7459 14.3457Z" fill="white"/>
<path d="M108.492 22.7181C108.492 27.7037 104.93 31.3106 99.6943 31.3106C94.4218 31.3106 90.9329 27.7037 90.9329 22.7181C90.9329 17.8058 94.4218 14.1989 99.6943 14.1989C104.93 14.1989 108.492 17.8058 108.492 22.7181ZM103.073 22.7181C103.073 20.448 101.74 18.8491 99.6943 18.8491C97.6177 18.8491 96.3519 20.448 96.3519 22.7181C96.3519 25.0615 97.6125 26.6605 99.6943 26.6605C101.734 26.6605 103.073 25.0615 103.073 22.7181Z" fill="white"/>
<path d="M124.075 30.3043C123.034 30.8967 121.366 31.3109 119.399 31.3109C115.356 31.3109 112.719 29.151 112.719 25.3239V18.9594H110.381V14.5714H112.719V10.3669H118.102V14.5714H123.15V18.9227H118.102V24.6162C118.102 26.105 118.991 26.6241 120.294 26.6241C121.073 26.6241 121.816 26.514 122.778 26.105L124.075 30.3043Z" fill="white"/>
<path d="M142.113 24.207H130.977C131.494 25.7692 132.907 26.8125 135.135 26.8125C136.919 26.8125 137.918 26.4403 138.807 25.8426L140.999 29.3394C139.738 30.2674 137.845 31.3106 134.764 31.3106C129.083 31.3106 125.484 27.7037 125.484 22.7181C125.484 17.6223 128.863 14.1989 133.911 14.1989C139.032 14.1989 142.259 17.2501 142.259 22.7548C142.265 23.2423 142.191 23.9134 142.113 24.207ZM130.982 21.009H137.327C136.992 19.4467 136.03 18.6289 134.246 18.6289C132.65 18.6289 131.426 19.3366 130.982 21.009Z" fill="white"/>
<path d="M159.889 21.4179V30.9384H154.768L154.731 29.9685C153.617 30.8231 152.132 31.3054 150.573 31.3054C146.859 31.3054 144.155 29.2241 144.155 25.8741C144.155 22.3039 146.938 20.4061 151.169 20.4061C152.466 20.4061 153.696 20.7049 154.658 21.334V21.1505C154.658 19.3261 153.471 18.2881 150.5 18.2881C148.643 18.2881 147.607 18.6603 146.676 18.9959L147.121 14.7546C147.863 14.5292 149.386 14.1989 151.724 14.1989C157.179 14.2042 159.889 17.2553 159.889 21.4179ZM154.658 25.8846C154.658 25.0667 154.025 23.9868 152.095 23.9868C150.573 23.9868 149.574 24.7312 149.574 25.8846C149.574 27.0379 150.578 27.7457 152.095 27.7457C153.69 27.7404 154.658 26.9593 154.658 25.8846Z" fill="white"/>
<path d="M179.855 20.9671V30.9384H174.435V21.1925C174.435 19.8923 173.546 18.8124 171.763 18.8124C170.24 18.8124 169.126 19.7822 169.126 21.2292V30.9384H163.744V14.5711H168.792L168.938 15.9866C169.791 14.9067 171.203 14.1989 173.353 14.1989C177.631 14.1989 179.855 16.7258 179.855 20.9671Z" fill="white"/>
</g>
<defs>
<clipPath id="clip0_2490_6051">
<rect width="179.854" height="48" fill="white"/>
</clipPath>
</defs>
</svg>
