<svg width="805" height="200" viewBox="0 0 805 200" fill="none" xmlns="http://www.w3.org/2000/svg">
<g opacity="0.5">
<path d="M1.33215 200L201.332 0" stroke="white"/>
<path d="M14.6642 200L214.664 0" stroke="white"/>
<path d="M28.0001 200L228 0" stroke="white"/>
<path d="M41.3322 200L241.332 0" stroke="white"/>
<path d="M54.6642 200L254.664 0" stroke="white"/>
<path d="M68.0001 200L268 0" stroke="white"/>
<path d="M81.3322 200L281.332 0" stroke="white"/>
<path d="M94.6642 200L294.664 0" stroke="white"/>
<path d="M108 200L308 0" stroke="white"/>
<path d="M121.332 200L321.332 0" stroke="white"/>
<path d="M134.664 200L334.664 0" stroke="white"/>
<path d="M148 200L348 0" stroke="white"/>
<path d="M161.332 200L361.332 0" stroke="white"/>
<path d="M174.664 200L374.664 0" stroke="white"/>
<path d="M188 200L388 0" stroke="white"/>
<path d="M201.332 200L401.332 0" stroke="white"/>
<path d="M214.664 200L414.664 0" stroke="white"/>
<path d="M228 200L428 0" stroke="white"/>
<path d="M241.332 200L441.332 0" stroke="white"/>
<path d="M254.664 200L454.664 0" stroke="white"/>
<path d="M268 200L468 0" stroke="white"/>
<path d="M281.332 200L481.332 0" stroke="white"/>
<path d="M294.664 200L494.664 0" stroke="white"/>
<path d="M308 200L508 0" stroke="white"/>
<path d="M321.332 200L521.332 0" stroke="white"/>
<path d="M334.664 200L534.664 0" stroke="white"/>
<path d="M348 200L548 0" stroke="white"/>
<path d="M361.332 200L561.332 0" stroke="white"/>
<path d="M374.664 200L574.664 0" stroke="white"/>
<path d="M388 200L588 0" stroke="white"/>
<path d="M401.332 200L601.332 0" stroke="white"/>
<path d="M414.664 200L614.664 0" stroke="white"/>
<path d="M428 200L628 0" stroke="white"/>
<path d="M441.332 200L641.332 0" stroke="white"/>
<path d="M454.664 200L654.664 0" stroke="white"/>
<path d="M468 200L668 0" stroke="white"/>
<path d="M481.332 200L681.332 0" stroke="white"/>
<path d="M494.664 200L694.664 0" stroke="white"/>
<path d="M508 200L708 0" stroke="white"/>
<path d="M521.332 200L721.332 0" stroke="white"/>
<path d="M534.664 200L734.664 0" stroke="white"/>
<path d="M548 200L748 0" stroke="white"/>
<path d="M561.332 200L761.332 0" stroke="white"/>
<path d="M574.664 200L774.664 0" stroke="white"/>
<path d="M588 200L788 0" stroke="white"/>
<path d="M601.332 200L801.332 0" stroke="white"/>
<path d="M614.664 200L814.664 0" stroke="white"/>
<path d="M628 200L828 0" stroke="white"/>
<path d="M641 200L841 0" stroke="white"/>
<path d="M654 200L854 0" stroke="white"/>
<path d="M667.004 200L867.004 0" stroke="white"/>
<path d="M680.008 200L880.008 0" stroke="white"/>
<path d="M693.008 200L893.008 0" stroke="white"/>
<path d="M706.008 200L906.008 0" stroke="white"/>
<path d="M719.012 200L919.012 0" stroke="white"/>
<path d="M732.016 200L932.016 0" stroke="white"/>
<path d="M745.016 200L945.016 0" stroke="white"/>
<path d="M758.016 200L958.016 0" stroke="white"/>
<path d="M771.02 200L971.02 0" stroke="white"/>
<path d="M784.024 200L984.024 0" stroke="white"/>
</g>
</svg>
