<svg width="101" height="72" viewBox="0 0 101 72" fill="none" xmlns="http://www.w3.org/2000/svg">
<path opacity="0.7" d="M88.5921 36C88.5921 29.1675 94.1416 23.6144 101 23.6144L101 0C81.0792 1.74153e-06 64.9353 16.1149 64.9353 36C64.9353 55.8851 81.0792 72 101 72L101 48.3856C94.1552 48.3856 88.5921 42.8461 88.5921 36Z" fill="#EBEBEB"/>
<path opacity="0.4" d="M49.5274 36C49.5274 29.1675 55.0769 23.6144 61.9353 23.6144L61.9353 0C42.0145 1.74153e-06 25.8706 16.1149 25.8706 36C25.8706 55.8851 42.0145 72 61.9353 72L61.9353 48.3856C55.0905 48.3856 49.5274 42.8461 49.5274 36Z" fill="#EBEBEB"/>
<path opacity="0.3" d="M22.8706 28.2964L9.37191 14.8219C-2.3406 26.5134 -2.3406 45.4866 9.37191 57.1781L22.8706 43.7036C18.6165 39.4571 18.6165 32.5429 22.8706 28.2964Z" fill="#EBEBEB"/>
</svg>
