<svg width="101" height="72" viewBox="0 0 101 72" fill="none" xmlns="http://www.w3.org/2000/svg">
<path opacity="0.7" d="M12.4079 36C12.4079 42.8325 6.85843 48.3856 0 48.3856L0 72C19.9208 72 36.0647 55.8851 36.0647 36C36.0647 16.1149 19.9208 0 0 0L0 23.6144C6.8448 23.6144 12.4079 29.1539 12.4079 36Z" fill="#EBEBEB"/>
<path opacity="0.4" d="M51.4726 36C51.4726 42.8325 45.9231 48.3856 39.0647 48.3856L39.0647 72C58.9855 72 75.1294 55.8851 75.1294 36C75.1294 16.1149 58.9855 0 39.0647 0V23.6144C45.9095 23.6144 51.4726 29.1539 51.4726 36Z" fill="#EBEBEB"/>
<path opacity="0.3" d="M78.1294 43.7036L91.6281 57.1781C103.341 45.4866 103.341 26.5134 91.6281 14.8219L78.1294 28.2964C82.3835 32.5429 82.3835 39.4571 78.1294 43.7036Z" fill="#EBEBEB"/>
</svg>
