<svg width="196" height="57" viewBox="0 0 196 57" fill="none" xmlns="http://www.w3.org/2000/svg">
<g clip-path="url(#clip0_2409_15501)">
<path d="M20 40C31.0457 40 40 31.0457 40 20C40 8.9543 31.0457 0 20 0C8.9543 0 0 8.9543 0 20C0 31.0457 8.9543 40 20 40Z" fill="#1D1D1B"/>
<path d="M20.2313 14.0957C16.9186 14.0957 14.2341 16.7801 14.2341 20.0929C14.2341 23.4057 16.9186 26.0901 20.2313 26.0901C23.5441 26.0901 26.2286 23.4057 26.2286 20.0929C26.2246 16.7801 23.5402 14.0957 20.2313 14.0957ZM20.2313 23.0557C18.5929 23.0557 17.2685 21.7274 17.2685 20.0929C17.2685 18.4544 18.5968 17.1301 20.2313 17.1301C21.8659 17.1301 23.1942 18.4584 23.1942 20.0929C23.1942 21.7274 21.8659 23.0557 20.2313 23.0557Z" fill="#E43625"/>
<path d="M25.1355 2.60539C23.8867 1.33675 22.1528 0.549316 20.2319 0.549316C18.3111 0.549316 16.5771 1.33675 15.3284 2.60539H25.1355Z" fill="#EE7F25"/>
<path d="M37.4214 24.8843C38.69 23.6355 39.4775 21.9016 39.4775 19.9807C39.4775 18.0598 38.69 16.3259 37.4214 15.0771V24.8843Z" fill="#FFCE1B"/>
<path d="M2.80437 15.0771C1.53572 16.3259 0.748291 18.0598 0.748291 19.9807C0.748291 21.9016 1.53572 23.6355 2.80437 24.8843V15.0771Z" fill="#6F368B"/>
<path d="M15.3252 37.2744C16.574 38.5431 18.3079 39.3305 20.2288 39.3305C22.1496 39.3305 23.8836 38.5431 25.1323 37.2744H15.3252Z" fill="#3091D0"/>
<path d="M26.0405 6.09457C24.8196 4.16973 22.676 2.88916 20.2302 2.88916C17.7844 2.88916 15.6408 4.16973 14.4199 6.09457H26.0405Z" fill="#3091D0"/>
<path d="M33.9385 25.791C35.8633 24.5701 37.1439 22.4265 37.1439 19.9807C37.1439 17.5349 35.8633 15.3913 33.9385 14.1704V25.791Z" fill="#6F368B"/>
<path d="M6.30184 14.1704C4.37701 15.3913 3.09644 17.5349 3.09644 19.9807C3.09644 22.4265 4.37701 24.5701 6.30184 25.791V14.1704Z" fill="#FFCE1B"/>
<path d="M14.4199 33.7769C15.6408 35.7017 17.7844 36.9823 20.2302 36.9823C22.676 36.9823 24.8196 35.7017 26.0405 33.7769H14.4199Z" fill="#54AD47"/>
<path d="M13.4067 29.7006C11.7562 29.6012 10.424 28.3325 10.2331 26.71H6.74927C6.95209 30.2455 9.82344 33.0611 13.3828 33.1804L13.4067 29.7006Z" fill="#6F368B"/>
<path d="M29.9052 26.6084C29.8058 28.2588 28.5371 29.5911 26.9146 29.782V33.2658C30.45 33.063 33.2657 30.1916 33.385 26.6323L29.9052 26.6084Z" fill="#EE7F25"/>
<path d="M26.729 10.0404C28.3794 10.1398 29.7117 11.4084 29.9026 13.031H33.3864C33.1836 9.49552 30.3122 6.67985 26.7529 6.56055L26.729 10.0404Z" fill="#FFCE1B"/>
<path d="M10.2291 13.1256C10.3285 11.4752 11.5972 10.1429 13.2197 9.95205V6.46826C9.68425 6.67109 6.86858 9.54243 6.74927 13.1018L10.2291 13.1256Z" fill="#E43625"/>
<path d="M6.49196 7.35156L6.35675 12.9789L3.11157 13.0982L3.17918 11.4438C3.17918 11.4438 4.31261 8.82303 6.49196 7.35156Z" fill="#FFCE1B"/>
<path d="M33.7544 7.31104L33.8896 12.9384L37.1348 13.0577L37.0672 11.4033C37.0672 11.3993 35.9338 8.7825 33.7544 7.31104Z" fill="#3091D0"/>
<path d="M33.7544 32.1065L33.8896 26.4792L37.1348 26.3599L37.0672 28.0143C37.0672 28.0182 35.9338 30.639 33.7544 32.1065Z" fill="#FFCE1B"/>
<path d="M6.49196 32.1563L6.35675 26.529L3.11157 26.4097L3.17918 28.0641C3.17918 28.0641 4.31261 30.6849 6.49196 32.1563Z" fill="#3091D0"/>
<path d="M7.69165 6.11822C7.69165 6.11822 10.225 3.2946 11.8475 2.87305H13.7247L13.7088 6.11822H7.69165Z" fill="#54AD47"/>
<path d="M32.8735 6.21051C32.8735 6.21051 30.3402 3.38689 28.7176 2.96533H26.8445L26.8604 6.21051H32.8735Z" fill="#6F368B"/>
<path d="M32.8735 33.5122C32.8735 33.5122 30.3402 36.3358 28.7176 36.7574H26.8445L26.8604 33.5122H32.8735Z" fill="#E43625"/>
<path d="M7.69165 33.4219C7.69165 33.4219 10.225 36.2455 11.8475 36.6671H13.7247L13.7088 33.4219H7.69165Z" fill="#EE7F25"/>
<path d="M17.2195 20.3398H14.2766V32.04H17.2195V20.3398Z" fill="#E43625"/>
<path d="M16.8487 13.0092C16.9442 11.2156 18.4236 9.79183 20.241 9.79183C22.0585 9.79183 23.5379 11.2156 23.6334 13.0092H27.1132C27.0138 9.29471 23.9794 6.31201 20.241 6.31201C16.5027 6.31201 13.4683 9.29471 13.3689 13.0092H16.8487Z" fill="#EE7F25"/>
<path d="M27.0295 16.5872C28.8231 16.6827 30.2469 18.1621 30.2469 19.9796C30.2469 21.797 28.8231 23.2764 27.0295 23.3719V26.8517C30.744 26.7523 33.7267 23.7179 33.7267 19.9796C33.7267 16.2412 30.744 13.2068 27.0295 13.1074V16.5872Z" fill="#54AD47"/>
<path d="M13.223 23.3719C11.4294 23.2764 10.0057 21.797 10.0057 19.9796C10.0057 18.1621 11.4294 16.6827 13.223 16.5872V13.1074C9.50858 13.2068 6.52588 16.2412 6.52588 19.9796C6.52588 23.7179 9.50858 26.7523 13.223 26.8517V23.3719Z" fill="#3091D0"/>
<path d="M23.4838 26.6108C23.3844 28.2613 22.1158 29.5935 20.4932 29.7844V33.2682C24.0287 33.0654 26.8443 30.1941 26.9636 26.6347L23.4838 26.6108Z" fill="#FFCE1B"/>
<path d="M62.4455 18.993C62.4455 23.2395 59.8171 26.0617 55.9812 26.0617C54.6212 26.0617 53.4443 25.6292 52.4853 24.8515V31.3611H48V12.1427H52.1759L52.2979 13.165C53.2569 12.3262 54.4948 11.8325 55.9769 11.8325C59.8171 11.8631 62.4455 14.8383 62.4455 18.993ZM57.934 18.993C57.934 17.1625 56.8225 15.7076 55.1487 15.7076C53.1697 15.7076 52.3023 16.979 52.3023 18.9624C52.3023 20.9764 53.3528 22.1866 55.1487 22.1866C56.8181 22.1866 57.934 20.9153 57.934 18.993Z" fill="#1D1D1B"/>
<path d="M74.7881 11.9548L74.5092 15.5809C74.3566 15.5504 74.1997 15.5198 73.6723 15.5198C71.2923 15.5198 69.6533 16.7911 69.6533 18.5867V25.7777H65.168V12.1427H69.3438L69.5313 13.816C70.3377 12.5752 71.6671 11.8325 73.6461 11.8325C74.1038 11.8325 74.5397 11.8937 74.7881 11.9548Z" fill="#1D1D1B"/>
<path d="M90.4103 18.9318C90.4103 23.0865 87.4419 26.0923 83.0786 26.0923C78.6848 26.0923 75.7773 23.0865 75.7773 18.9318C75.7773 14.8383 78.6848 11.8325 83.0786 11.8325C87.4419 11.8325 90.4103 14.8383 90.4103 18.9318ZM85.8944 18.9318C85.8944 17.0401 84.7829 15.7076 83.0786 15.7076C81.3481 15.7076 80.2932 17.0401 80.2932 18.9318C80.2932 20.8847 81.3437 22.2172 83.0786 22.2172C84.7786 22.2172 85.8944 20.8847 85.8944 18.9318Z" fill="#1D1D1B"/>
<path d="M103.396 25.2537C102.529 25.7474 101.138 26.0925 99.4992 26.0925C96.1297 26.0925 93.9328 24.2926 93.9328 21.1033V15.7996H91.9844V12.1429H93.9328V8.63916H98.4182V12.1429H102.625V15.769H98.4182V20.5136C98.4182 21.7543 99.1592 22.1868 100.245 22.1868C100.894 22.1868 101.513 22.0951 102.315 21.7543L103.396 25.2537Z" fill="#1D1D1B"/>
<path d="M118.428 20.1726H109.147C109.579 21.4745 110.756 22.3438 112.613 22.3438C114.099 22.3438 114.932 22.0337 115.673 21.5356L117.499 24.4496C116.449 25.2229 114.871 26.0923 112.303 26.0923C107.57 26.0923 104.571 23.0865 104.571 18.9318C104.571 14.6853 107.386 11.8325 111.593 11.8325C115.86 11.8325 118.55 14.3752 118.55 18.9624C118.554 19.3687 118.493 19.9279 118.428 20.1726ZM109.152 17.5076H114.439C114.16 16.2057 113.358 15.5242 111.872 15.5242C110.542 15.5242 109.522 16.1139 109.152 17.5076Z" fill="#1D1D1B"/>
<path d="M133.241 17.8484V25.7821H128.973L128.943 24.9739C128.014 25.686 126.776 26.0879 125.477 26.0879C122.382 26.0879 120.129 24.3535 120.129 21.5618C120.129 18.5867 122.448 17.0052 125.974 17.0052C127.055 17.0052 128.08 17.2542 128.882 17.7785V17.6255C128.882 16.1052 127.892 15.2402 125.416 15.2402C123.869 15.2402 123.006 15.5504 122.23 15.83L122.6 12.2956C123.219 12.1078 124.488 11.8325 126.436 11.8325C130.983 11.8369 133.241 14.3795 133.241 17.8484ZM128.882 21.5706C128.882 20.889 128.354 19.9891 126.746 19.9891C125.477 19.9891 124.645 20.6094 124.645 21.5706C124.645 22.5317 125.482 23.1215 126.746 23.1215C128.075 23.1171 128.882 22.4662 128.882 21.5706Z" fill="#1D1D1B"/>
<path d="M149.879 17.4726V25.7821H145.363V17.6605C145.363 16.577 144.622 15.6771 143.135 15.6771C141.867 15.6771 140.938 16.4853 140.938 17.6911V25.7821H136.453V12.1427H140.659L140.782 13.3223C141.492 12.4223 142.669 11.8325 144.46 11.8325C148.026 11.8325 149.879 13.9383 149.879 17.4726Z" fill="#1D1D1B"/>
</g>
<path d="M0.307617 51L1.66553 44.5752H5.08008L4.89551 45.4629H2.51807L2.09619 47.4712H4.31543L4.12207 48.3589H1.90283L1.34473 51H0.307617ZM6.79395 51.0791C6.4248 51.0791 6.10254 51.0029 5.82715 50.8506C5.55176 50.6982 5.33789 50.4829 5.18555 50.2046C5.03613 49.9233 4.96143 49.5908 4.96143 49.207C4.96143 48.8818 4.99512 48.5654 5.0625 48.2578C5.13281 47.9502 5.23535 47.6631 5.37012 47.3965C5.50488 47.1299 5.67334 46.897 5.87549 46.6978C6.07764 46.4956 6.31201 46.3389 6.57861 46.2275C6.84521 46.1133 7.14404 46.0562 7.4751 46.0562C7.85303 46.0562 8.17822 46.1323 8.45068 46.2847C8.72314 46.437 8.93262 46.6553 9.0791 46.9395C9.22559 47.2236 9.29883 47.5635 9.29883 47.959C9.29883 48.2754 9.26514 48.5845 9.19775 48.8862C9.1333 49.188 9.03516 49.4722 8.90332 49.7388C8.77148 50.0024 8.60449 50.2354 8.40234 50.4375C8.20312 50.6367 7.96875 50.7935 7.69922 50.9077C7.43262 51.022 7.13086 51.0791 6.79395 51.0791ZM6.86865 50.2354C7.03271 50.2354 7.18506 50.1987 7.32568 50.1255C7.46924 50.0493 7.59814 49.9424 7.7124 49.8047C7.82666 49.6641 7.92334 49.4985 8.00244 49.3081C8.08447 49.1147 8.14746 48.9009 8.19141 48.6665C8.23535 48.4321 8.25732 48.1816 8.25732 47.915C8.25732 47.7363 8.23096 47.5708 8.17822 47.4185C8.12549 47.2632 8.0376 47.1387 7.91455 47.0449C7.79443 46.9482 7.6333 46.8999 7.43115 46.8999C7.24951 46.8999 7.08252 46.9438 6.93018 47.0317C6.78076 47.1167 6.64746 47.2354 6.53027 47.3877C6.41602 47.54 6.31934 47.7158 6.24023 47.915C6.16113 48.1113 6.10107 48.3223 6.06006 48.5479C6.01904 48.7705 5.99854 48.9961 5.99854 49.2246C5.99854 49.5498 6.07178 49.8003 6.21826 49.9761C6.36768 50.1489 6.58447 50.2354 6.86865 50.2354ZM9.92285 51L10.9556 46.1353H11.7598L11.6543 47.0537H11.7026C11.8286 46.8662 11.9648 46.6963 12.1113 46.5439C12.2607 46.3916 12.4263 46.27 12.6079 46.1792C12.7896 46.0884 12.9917 46.043 13.2144 46.043C13.2935 46.043 13.3755 46.0488 13.4604 46.0605C13.5483 46.0693 13.6245 46.0825 13.689 46.1001L13.4648 47.0669C13.4004 47.0493 13.3301 47.0347 13.2539 47.0229C13.1777 47.0112 13.0972 47.0054 13.0122 47.0054C12.8188 47.0054 12.6372 47.0508 12.4673 47.1416C12.2974 47.2324 12.1436 47.3584 12.0059 47.5195C11.8682 47.6807 11.7495 47.8696 11.6499 48.0864C11.5503 48.3003 11.4727 48.5332 11.417 48.7852L10.9512 51H9.92285ZM13.5967 51L14.6294 46.1353H15.4336L15.3281 47.0537H15.3721C15.4863 46.8809 15.6182 46.7183 15.7676 46.5659C15.9199 46.4106 16.0913 46.2847 16.2817 46.188C16.4751 46.0913 16.6919 46.043 16.9321 46.043C17.272 46.043 17.5312 46.1367 17.71 46.3242C17.8916 46.5117 18.0044 46.7681 18.0483 47.0933H18.0835C18.2036 46.9058 18.3428 46.7329 18.501 46.5747C18.6621 46.4165 18.8423 46.2891 19.0415 46.1924C19.2437 46.0928 19.4634 46.043 19.7007 46.043C20.0933 46.043 20.3906 46.1572 20.5928 46.3857C20.7949 46.6143 20.896 46.9336 20.896 47.3438C20.896 47.4668 20.8872 47.5928 20.8696 47.7217C20.855 47.8506 20.8315 47.9839 20.7993 48.1216L20.1929 51H19.1646L19.793 48.0469C19.8164 47.9326 19.834 47.8301 19.8457 47.7393C19.8604 47.6455 19.8677 47.5576 19.8677 47.4756C19.8677 47.2852 19.8223 47.1401 19.7314 47.0405C19.6436 46.938 19.5088 46.8867 19.3271 46.8867C19.1748 46.8867 19.0239 46.9321 18.8745 47.0229C18.728 47.1138 18.5889 47.2456 18.457 47.4185C18.3252 47.5913 18.208 47.8008 18.1055 48.0469C18.0029 48.29 17.9194 48.5654 17.855 48.873L17.4067 51H16.3828L17.0024 48.0557C17.0288 47.9385 17.0479 47.833 17.0596 47.7393C17.0713 47.6455 17.0771 47.5635 17.0771 47.4932C17.0771 47.2969 17.0347 47.1475 16.9497 47.0449C16.8677 46.9395 16.7358 46.8867 16.5542 46.8867C16.4019 46.8867 16.251 46.9321 16.1016 47.0229C15.9521 47.1138 15.8115 47.2471 15.6797 47.4229C15.5479 47.5986 15.4292 47.8125 15.3237 48.0645C15.2183 48.3135 15.1318 48.5991 15.0645 48.9214L14.625 51H13.5967ZM23.647 51.0879C23.2749 51.0879 22.9497 51.0176 22.6714 50.877C22.396 50.7334 22.1821 50.5239 22.0298 50.2485C21.8804 49.9702 21.8057 49.6304 21.8057 49.229C21.8057 48.8306 21.8628 48.4424 21.9771 48.0645C22.0913 47.6836 22.2598 47.3408 22.4824 47.0361C22.7051 46.7314 22.9761 46.4897 23.2954 46.311C23.6147 46.1323 23.978 46.043 24.3853 46.043C24.8833 46.043 25.2568 46.1558 25.5059 46.3813C25.7578 46.604 25.8838 46.8999 25.8838 47.269C25.8838 47.521 25.8267 47.751 25.7124 47.959C25.5981 48.167 25.4238 48.3472 25.1895 48.4995C24.958 48.6489 24.6636 48.7646 24.3062 48.8467C23.9517 48.9287 23.5342 48.9697 23.0537 48.9697H22.856C22.853 49.0137 22.8501 49.0591 22.8472 49.106C22.8442 49.1499 22.8428 49.1938 22.8428 49.2378C22.8428 49.563 22.9277 49.8193 23.0977 50.0068C23.2676 50.1914 23.5151 50.2837 23.8403 50.2837C24.0864 50.2837 24.3135 50.2529 24.5215 50.1914C24.7295 50.1299 24.9624 50.0376 25.2202 49.9146V50.7275C24.9829 50.8418 24.7427 50.9312 24.4995 50.9956C24.2563 51.0571 23.9722 51.0879 23.647 51.0879ZM22.9834 48.2227H23.1328C23.4902 48.2227 23.8008 48.189 24.0645 48.1216C24.3281 48.0513 24.5317 47.9487 24.6753 47.814C24.8188 47.6763 24.8906 47.5093 24.8906 47.313C24.8906 47.1606 24.8423 47.042 24.7456 46.957C24.6519 46.8691 24.5112 46.8252 24.3237 46.8252C24.1392 46.8252 23.9575 46.8823 23.7788 46.9966C23.6001 47.1079 23.4404 47.269 23.2998 47.48C23.1592 47.688 23.0537 47.9355 22.9834 48.2227ZM26.3496 51L27.3823 46.1353H28.1865L28.0811 47.0537H28.1294C28.2554 46.8662 28.3916 46.6963 28.5381 46.5439C28.6875 46.3916 28.853 46.27 29.0347 46.1792C29.2163 46.0884 29.4185 46.043 29.6411 46.043C29.7202 46.043 29.8022 46.0488 29.8872 46.0605C29.9751 46.0693 30.0513 46.0825 30.1157 46.1001L29.8916 47.0669C29.8271 47.0493 29.7568 47.0347 29.6807 47.0229C29.6045 47.0112 29.5239 47.0054 29.439 47.0054C29.2456 47.0054 29.064 47.0508 28.894 47.1416C28.7241 47.2324 28.5703 47.3584 28.4326 47.5195C28.2949 47.6807 28.1763 47.8696 28.0767 48.0864C27.9771 48.3003 27.8994 48.5332 27.8438 48.7852L27.3779 51H26.3496ZM30.019 51L31.4736 44.1621H32.4976L31.0474 51H30.019ZM32.1768 53.1621C32.0273 53.1621 31.9058 53.1533 31.812 53.1357C31.7153 53.1182 31.6274 53.0977 31.5483 53.0742V52.2524C31.6274 52.27 31.7109 52.2847 31.7988 52.2964C31.8867 52.311 31.9834 52.3184 32.0889 52.3184C32.3496 52.3184 32.5679 52.2393 32.7437 52.0811C32.9224 51.9258 33.0864 51.7104 33.2358 51.4351L33.46 51.0264L32.7305 46.1353H33.75L34.04 48.5083C34.0605 48.6724 34.0767 48.8481 34.0884 49.0356C34.103 49.2231 34.1133 49.4048 34.1191 49.5806C34.125 49.7534 34.1279 49.8999 34.1279 50.02H34.1587C34.1997 49.9204 34.251 49.7944 34.3125 49.6421C34.374 49.4897 34.4429 49.3271 34.519 49.1543C34.5952 48.9814 34.6714 48.8203 34.7476 48.6709L36.0396 46.1353H37.1514L34.1147 51.769C33.9478 52.0796 33.7676 52.3389 33.5742 52.5469C33.3838 52.7549 33.1743 52.9087 32.9458 53.0083C32.7173 53.1108 32.4609 53.1621 32.1768 53.1621ZM39.3442 51L40.7021 44.5752H41.8755L43.6421 49.6289H43.6685C43.689 49.4941 43.7153 49.3286 43.7476 49.1323C43.7798 48.9331 43.8164 48.7266 43.8574 48.5127C43.8984 48.2988 43.938 48.1011 43.9761 47.9194L44.688 44.5752H45.6416L44.2837 51H43.1411L41.335 45.8716H41.3042C41.2954 45.939 41.2808 46.0415 41.2603 46.1792C41.2397 46.314 41.2148 46.4692 41.1855 46.645C41.1592 46.8208 41.1299 46.9995 41.0977 47.1812C41.0654 47.3628 41.0317 47.5312 40.9966 47.6865L40.2979 51H39.3442ZM47.3203 51.0879C46.998 51.0879 46.7095 51.0586 46.4546 51C46.2026 50.9414 45.9785 50.8564 45.7822 50.7451V49.7783C46.0078 49.8984 46.2466 49.9995 46.4985 50.0815C46.7534 50.1606 47.0303 50.2002 47.3291 50.2002C47.5049 50.2002 47.6704 50.1826 47.8257 50.1475C47.981 50.1094 48.1187 50.0508 48.2388 49.9717C48.3589 49.8926 48.4526 49.793 48.52 49.6729C48.5874 49.5498 48.6211 49.4048 48.6211 49.2378C48.6211 49.0679 48.5859 48.9214 48.5156 48.7983C48.4453 48.6753 48.3413 48.5596 48.2036 48.4512C48.0659 48.3398 47.8931 48.2197 47.6851 48.0908C47.4858 47.9619 47.2998 47.8198 47.127 47.6646C46.9541 47.5093 46.8149 47.3291 46.7095 47.124C46.604 46.916 46.5513 46.6699 46.5513 46.3857C46.5513 46.0928 46.604 45.8291 46.7095 45.5947C46.8179 45.3604 46.9688 45.1611 47.1621 44.9971C47.3584 44.8301 47.5869 44.7026 47.8477 44.6147C48.1113 44.5269 48.397 44.4829 48.7046 44.4829C49.0386 44.4829 49.3389 44.5181 49.6055 44.5884C49.8721 44.6558 50.1299 44.7554 50.3789 44.8872L49.9966 45.7134C49.8003 45.6167 49.5923 45.5376 49.3726 45.4761C49.1558 45.4116 48.9331 45.3794 48.7046 45.3794C48.5522 45.3794 48.4102 45.3999 48.2783 45.4409C48.1494 45.4819 48.0366 45.542 47.9399 45.6211C47.8433 45.7002 47.7671 45.7983 47.7114 45.9155C47.6587 46.0298 47.6323 46.1616 47.6323 46.311C47.6323 46.481 47.666 46.6245 47.7334 46.7417C47.8008 46.8589 47.8989 46.9673 48.0278 47.0669C48.1567 47.1636 48.3135 47.269 48.498 47.3833C48.7471 47.5386 48.9609 47.6982 49.1396 47.8623C49.3184 48.0264 49.4546 48.2095 49.5483 48.4116C49.6421 48.6138 49.689 48.8525 49.689 49.1279C49.689 49.459 49.6289 49.7476 49.5088 49.9937C49.3916 50.2368 49.2246 50.4404 49.0078 50.6045C48.7939 50.7656 48.5435 50.8872 48.2563 50.9692C47.9692 51.0483 47.6572 51.0879 47.3203 51.0879ZM50.5723 51L51.9302 44.5752H53.5474C54.3325 44.5752 54.9434 44.7847 55.3799 45.2036C55.8164 45.6196 56.0347 46.2422 56.0347 47.0713C56.0347 47.5342 55.9819 47.9663 55.8765 48.3677C55.7739 48.769 55.6216 49.1323 55.4194 49.4575C55.2173 49.7798 54.9668 50.0566 54.668 50.2881C54.3691 50.5166 54.0249 50.6924 53.6353 50.8154C53.2456 50.9385 52.8135 51 52.3389 51H50.5723ZM51.7983 50.1167H52.3916C52.7314 50.1167 53.0376 50.0654 53.3101 49.9629C53.5854 49.8604 53.8257 49.7168 54.0308 49.5322C54.2358 49.3447 54.4072 49.125 54.5449 48.873C54.6826 48.6211 54.7852 48.3457 54.8525 48.0469C54.9229 47.7451 54.958 47.4302 54.958 47.1021C54.958 46.5308 54.8203 46.1133 54.5449 45.8496C54.2725 45.583 53.9033 45.4497 53.4375 45.4497H52.7871L51.7983 50.1167ZM56.6279 51L57.9858 44.5752H59.0273L57.854 50.1035H60.2358L60.0469 51H56.6279ZM65.4126 51.0879C65.0405 51.0879 64.7153 51.0176 64.437 50.877C64.1616 50.7334 63.9478 50.5239 63.7954 50.2485C63.646 49.9702 63.5713 49.6304 63.5713 49.229C63.5713 48.8306 63.6284 48.4424 63.7427 48.0645C63.8569 47.6836 64.0254 47.3408 64.248 47.0361C64.4707 46.7314 64.7417 46.4897 65.061 46.311C65.3804 46.1323 65.7437 46.043 66.1509 46.043C66.6489 46.043 67.0225 46.1558 67.2715 46.3813C67.5234 46.604 67.6494 46.8999 67.6494 47.269C67.6494 47.521 67.5923 47.751 67.478 47.959C67.3638 48.167 67.1895 48.3472 66.9551 48.4995C66.7236 48.6489 66.4292 48.7646 66.0718 48.8467C65.7173 48.9287 65.2998 48.9697 64.8193 48.9697H64.6216C64.6187 49.0137 64.6157 49.0591 64.6128 49.106C64.6099 49.1499 64.6084 49.1938 64.6084 49.2378C64.6084 49.563 64.6934 49.8193 64.8633 50.0068C65.0332 50.1914 65.2808 50.2837 65.606 50.2837C65.8521 50.2837 66.0791 50.2529 66.2871 50.1914C66.4951 50.1299 66.728 50.0376 66.9858 49.9146V50.7275C66.7485 50.8418 66.5083 50.9312 66.2651 50.9956C66.022 51.0571 65.7378 51.0879 65.4126 51.0879ZM64.749 48.2227H64.8984C65.2559 48.2227 65.5664 48.189 65.8301 48.1216C66.0938 48.0513 66.2974 47.9487 66.4409 47.814C66.5845 47.6763 66.6562 47.5093 66.6562 47.313C66.6562 47.1606 66.6079 47.042 66.5112 46.957C66.4175 46.8691 66.2769 46.8252 66.0894 46.8252C65.9048 46.8252 65.7231 46.8823 65.5444 46.9966C65.3657 47.1079 65.2061 47.269 65.0654 47.48C64.9248 47.688 64.8193 47.9355 64.749 48.2227ZM68.1196 49.0312L68.3086 48.1436H70.519L70.3301 49.0312H68.1196ZM73.7578 51.0879C73.0049 51.0879 72.4175 50.8755 71.9956 50.4507C71.5737 50.0229 71.3628 49.4136 71.3628 48.6226C71.3628 48.1685 71.4155 47.7349 71.521 47.3218C71.6265 46.9058 71.7803 46.5249 71.9824 46.1792C72.1846 45.8335 72.4321 45.5332 72.7251 45.2783C73.021 45.0234 73.3564 44.8271 73.7314 44.6895C74.1094 44.5488 74.5239 44.4785 74.9751 44.4785C75.3325 44.4785 75.6562 44.5137 75.9463 44.584C76.2393 44.6514 76.5249 44.751 76.8032 44.8828L76.4077 45.7617C76.188 45.6504 75.958 45.5596 75.7178 45.4893C75.4775 45.4189 75.2183 45.3838 74.9399 45.3838C74.5532 45.3838 74.2061 45.4688 73.8984 45.6387C73.5908 45.8057 73.3271 46.0356 73.1074 46.3286C72.8906 46.6216 72.7251 46.9585 72.6108 47.3394C72.4966 47.7202 72.4395 48.123 72.4395 48.5479C72.4395 48.8818 72.4922 49.1719 72.5977 49.418C72.7031 49.6641 72.8672 49.8545 73.0898 49.9893C73.3125 50.1211 73.5952 50.187 73.938 50.187C74.1313 50.187 74.3057 50.1738 74.4609 50.1475C74.6191 50.1182 74.7656 50.0845 74.9004 50.0464L75.2607 48.4072H74.0127L74.2061 47.5151H76.4736L75.7793 50.7451C75.498 50.8447 75.1978 50.9268 74.8784 50.9912C74.562 51.0557 74.1885 51.0879 73.7578 51.0879ZM79.1807 51.0791C78.8115 51.0791 78.4893 51.0029 78.2139 50.8506C77.9385 50.6982 77.7246 50.4829 77.5723 50.2046C77.4229 49.9233 77.3481 49.5908 77.3481 49.207C77.3481 48.8818 77.3818 48.5654 77.4492 48.2578C77.5195 47.9502 77.6221 47.6631 77.7568 47.3965C77.8916 47.1299 78.0601 46.897 78.2622 46.6978C78.4644 46.4956 78.6987 46.3389 78.9653 46.2275C79.2319 46.1133 79.5308 46.0562 79.8618 46.0562C80.2397 46.0562 80.5649 46.1323 80.8374 46.2847C81.1099 46.437 81.3193 46.6553 81.4658 46.9395C81.6123 47.2236 81.6855 47.5635 81.6855 47.959C81.6855 48.2754 81.6519 48.5845 81.5845 48.8862C81.52 49.188 81.4219 49.4722 81.29 49.7388C81.1582 50.0024 80.9912 50.2354 80.7891 50.4375C80.5898 50.6367 80.3555 50.7935 80.0859 50.9077C79.8193 51.022 79.5176 51.0791 79.1807 51.0791ZM79.2554 50.2354C79.4194 50.2354 79.5718 50.1987 79.7124 50.1255C79.856 50.0493 79.9849 49.9424 80.0991 49.8047C80.2134 49.6641 80.3101 49.4985 80.3892 49.3081C80.4712 49.1147 80.5342 48.9009 80.5781 48.6665C80.6221 48.4321 80.644 48.1816 80.644 47.915C80.644 47.7363 80.6177 47.5708 80.5649 47.4185C80.5122 47.2632 80.4243 47.1387 80.3013 47.0449C80.1812 46.9482 80.02 46.8999 79.8179 46.8999C79.6362 46.8999 79.4692 46.9438 79.3169 47.0317C79.1675 47.1167 79.0342 47.2354 78.917 47.3877C78.8027 47.54 78.7061 47.7158 78.627 47.915C78.5479 48.1113 78.4878 48.3223 78.4468 48.5479C78.4058 48.7705 78.3853 48.9961 78.3853 49.2246C78.3853 49.5498 78.4585 49.8003 78.605 49.9761C78.7544 50.1489 78.9712 50.2354 79.2554 50.2354ZM83.1313 51L82.5381 46.1353H83.5576L83.8037 48.8071C83.8154 48.9214 83.8257 49.0576 83.8345 49.2158C83.8433 49.374 83.8506 49.5293 83.8564 49.6816C83.8652 49.8311 83.8696 49.9541 83.8696 50.0508H83.9048C83.9546 49.9307 84.0117 49.7944 84.0762 49.6421C84.1436 49.4868 84.2109 49.3359 84.2783 49.1895C84.3457 49.04 84.4058 48.9141 84.4585 48.8115L85.8516 46.1353H86.9546L84.3135 51H83.1313ZM88.7388 51.0879C88.3667 51.0879 88.0415 51.0176 87.7632 50.877C87.4878 50.7334 87.2739 50.5239 87.1216 50.2485C86.9722 49.9702 86.8975 49.6304 86.8975 49.229C86.8975 48.8306 86.9546 48.4424 87.0688 48.0645C87.1831 47.6836 87.3516 47.3408 87.5742 47.0361C87.7969 46.7314 88.0679 46.4897 88.3872 46.311C88.7065 46.1323 89.0698 46.043 89.4771 46.043C89.9751 46.043 90.3486 46.1558 90.5977 46.3813C90.8496 46.604 90.9756 46.8999 90.9756 47.269C90.9756 47.521 90.9185 47.751 90.8042 47.959C90.6899 48.167 90.5156 48.3472 90.2812 48.4995C90.0498 48.6489 89.7554 48.7646 89.3979 48.8467C89.0435 48.9287 88.626 48.9697 88.1455 48.9697H87.9478C87.9448 49.0137 87.9419 49.0591 87.939 49.106C87.936 49.1499 87.9346 49.1938 87.9346 49.2378C87.9346 49.563 88.0195 49.8193 88.1895 50.0068C88.3594 50.1914 88.6069 50.2837 88.9321 50.2837C89.1782 50.2837 89.4053 50.2529 89.6133 50.1914C89.8213 50.1299 90.0542 50.0376 90.312 49.9146V50.7275C90.0747 50.8418 89.8345 50.9312 89.5913 50.9956C89.3481 51.0571 89.064 51.0879 88.7388 51.0879ZM88.0752 48.2227H88.2246C88.582 48.2227 88.8926 48.189 89.1562 48.1216C89.4199 48.0513 89.6235 47.9487 89.7671 47.814C89.9106 47.6763 89.9824 47.5093 89.9824 47.313C89.9824 47.1606 89.9341 47.042 89.8374 46.957C89.7437 46.8691 89.603 46.8252 89.4155 46.8252C89.231 46.8252 89.0493 46.8823 88.8706 46.9966C88.6919 47.1079 88.5322 47.269 88.3916 47.48C88.251 47.688 88.1455 47.9355 88.0752 48.2227ZM91.4414 51L92.4741 46.1353H93.2783L93.1729 47.0537H93.2212C93.3472 46.8662 93.4834 46.6963 93.6299 46.5439C93.7793 46.3916 93.9448 46.27 94.1265 46.1792C94.3081 46.0884 94.5103 46.043 94.7329 46.043C94.812 46.043 94.894 46.0488 94.979 46.0605C95.0669 46.0693 95.1431 46.0825 95.2075 46.1001L94.9834 47.0669C94.9189 47.0493 94.8486 47.0347 94.7725 47.0229C94.6963 47.0112 94.6157 47.0054 94.5308 47.0054C94.3374 47.0054 94.1558 47.0508 93.9858 47.1416C93.8159 47.2324 93.6621 47.3584 93.5244 47.5195C93.3867 47.6807 93.2681 47.8696 93.1685 48.0864C93.0688 48.3003 92.9912 48.5332 92.9355 48.7852L92.4697 51H91.4414ZM95.0977 51L96.1348 46.1221H96.9653L96.8599 47.0405H96.8862C97.0034 46.8677 97.1396 46.7051 97.2949 46.5527C97.4502 46.3975 97.626 46.2715 97.8223 46.1748C98.0215 46.0781 98.2441 46.0298 98.4902 46.0298C98.7598 46.0298 98.9883 46.0825 99.1758 46.188C99.3633 46.2935 99.5054 46.4443 99.6021 46.6406C99.6987 46.8369 99.7471 47.0713 99.7471 47.3438C99.7471 47.4639 99.7368 47.5928 99.7163 47.7305C99.6987 47.8652 99.6753 47.9971 99.646 48.126L99.0352 51H97.9849L98.6089 48.0425C98.6353 47.9282 98.6543 47.8257 98.666 47.7349C98.6807 47.644 98.688 47.5591 98.688 47.48C98.688 47.2866 98.6396 47.1416 98.543 47.0449C98.4492 46.9482 98.3086 46.8999 98.1211 46.8999C97.916 46.8999 97.7139 46.979 97.5146 47.1372C97.3154 47.2954 97.1353 47.5254 96.9741 47.8271C96.813 48.1289 96.6855 48.4937 96.5918 48.9214L96.1523 51H95.0977ZM101.984 51.0879C101.735 51.0879 101.508 51.0278 101.303 50.9077C101.101 50.7847 100.939 50.5972 100.819 50.3452C100.699 50.0903 100.639 49.7666 100.639 49.374C100.639 49.0342 100.674 48.7031 100.745 48.3809C100.818 48.0586 100.92 47.7568 101.052 47.4756C101.187 47.1943 101.35 46.9468 101.54 46.7329C101.73 46.5161 101.946 46.3477 102.186 46.2275C102.426 46.1045 102.686 46.043 102.964 46.043C103.175 46.043 103.359 46.0796 103.518 46.1528C103.676 46.2231 103.809 46.3184 103.917 46.4385C104.026 46.5586 104.114 46.6919 104.181 46.8384H104.221L104.484 46.1353H105.275L104.243 51H103.456L103.553 50.2134H103.518C103.392 50.3745 103.251 50.521 103.096 50.6528C102.943 50.7847 102.775 50.8901 102.59 50.9692C102.406 51.0483 102.204 51.0879 101.984 51.0879ZM102.362 50.2485C102.567 50.2485 102.763 50.1724 102.951 50.02C103.138 49.8647 103.304 49.6597 103.447 49.4048C103.594 49.1499 103.702 48.8701 103.772 48.5654C103.808 48.4189 103.831 48.2798 103.843 48.1479C103.857 48.0161 103.865 47.8843 103.865 47.7524C103.865 47.4976 103.797 47.2896 103.663 47.1284C103.528 46.9673 103.343 46.8867 103.109 46.8867C102.948 46.8867 102.794 46.9321 102.647 47.0229C102.504 47.1138 102.374 47.2397 102.256 47.4009C102.139 47.5591 102.037 47.7422 101.949 47.9502C101.864 48.1582 101.798 48.3823 101.751 48.6226C101.707 48.8599 101.685 49.1016 101.685 49.3477C101.685 49.6436 101.744 49.8677 101.861 50.02C101.981 50.1724 102.148 50.2485 102.362 50.2485ZM105.636 51L106.673 46.1221H107.503L107.398 47.0405H107.424C107.542 46.8677 107.678 46.7051 107.833 46.5527C107.988 46.3975 108.164 46.2715 108.36 46.1748C108.56 46.0781 108.782 46.0298 109.028 46.0298C109.298 46.0298 109.526 46.0825 109.714 46.188C109.901 46.2935 110.043 46.4443 110.14 46.6406C110.237 46.8369 110.285 47.0713 110.285 47.3438C110.285 47.4639 110.275 47.5928 110.254 47.7305C110.237 47.8652 110.213 47.9971 110.184 48.126L109.573 51H108.523L109.147 48.0425C109.173 47.9282 109.192 47.8257 109.204 47.7349C109.219 47.644 109.226 47.5591 109.226 47.48C109.226 47.2866 109.178 47.1416 109.081 47.0449C108.987 46.9482 108.847 46.8999 108.659 46.8999C108.454 46.8999 108.252 46.979 108.053 47.1372C107.854 47.2954 107.673 47.5254 107.512 47.8271C107.351 48.1289 107.224 48.4937 107.13 48.9214L106.69 51H105.636ZM112.983 51.0879C112.635 51.0879 112.324 51.0234 112.052 50.8945C111.779 50.7656 111.565 50.5679 111.41 50.3013C111.255 50.0347 111.177 49.6948 111.177 49.2817C111.177 48.9331 111.214 48.5991 111.287 48.2798C111.363 47.9575 111.473 47.6616 111.617 47.3921C111.76 47.1196 111.936 46.8838 112.144 46.6846C112.352 46.4824 112.589 46.3257 112.856 46.2144C113.123 46.1001 113.417 46.043 113.739 46.043C113.991 46.043 114.227 46.0679 114.447 46.1177C114.667 46.1646 114.869 46.2305 115.053 46.3154L114.746 47.1284C114.605 47.064 114.454 47.0083 114.293 46.9614C114.135 46.9116 113.96 46.8867 113.77 46.8867C113.533 46.8867 113.319 46.9512 113.128 47.0801C112.938 47.2061 112.775 47.3804 112.641 47.603C112.506 47.8228 112.402 48.0718 112.329 48.3501C112.258 48.6284 112.223 48.9199 112.223 49.2246C112.223 49.4414 112.26 49.626 112.333 49.7783C112.406 49.9307 112.512 50.0479 112.649 50.1299C112.79 50.209 112.958 50.2485 113.155 50.2485C113.372 50.2485 113.575 50.2178 113.766 50.1562C113.956 50.0918 114.146 50.0127 114.337 49.9189V50.7715C114.155 50.8682 113.953 50.9443 113.73 51C113.508 51.0586 113.259 51.0879 112.983 51.0879ZM117.242 51.0879C116.87 51.0879 116.544 51.0176 116.266 50.877C115.991 50.7334 115.777 50.5239 115.625 50.2485C115.475 49.9702 115.4 49.6304 115.4 49.229C115.4 48.8306 115.458 48.4424 115.572 48.0645C115.686 47.6836 115.854 47.3408 116.077 47.0361C116.3 46.7314 116.571 46.4897 116.89 46.311C117.209 46.1323 117.573 46.043 117.98 46.043C118.478 46.043 118.852 46.1558 119.101 46.3813C119.353 46.604 119.479 46.8999 119.479 47.269C119.479 47.521 119.421 47.751 119.307 47.959C119.193 48.167 119.019 48.3472 118.784 48.4995C118.553 48.6489 118.258 48.7646 117.901 48.8467C117.546 48.9287 117.129 48.9697 116.648 48.9697H116.451C116.448 49.0137 116.445 49.0591 116.442 49.106C116.439 49.1499 116.438 49.1938 116.438 49.2378C116.438 49.563 116.522 49.8193 116.692 50.0068C116.862 50.1914 117.11 50.2837 117.435 50.2837C117.681 50.2837 117.908 50.2529 118.116 50.1914C118.324 50.1299 118.557 50.0376 118.815 49.9146V50.7275C118.578 50.8418 118.337 50.9312 118.094 50.9956C117.851 51.0571 117.567 51.0879 117.242 51.0879ZM116.578 48.2227H116.728C117.085 48.2227 117.396 48.189 117.659 48.1216C117.923 48.0513 118.126 47.9487 118.27 47.814C118.414 47.6763 118.485 47.5093 118.485 47.313C118.485 47.1606 118.437 47.042 118.34 46.957C118.247 46.8691 118.106 46.8252 117.918 46.8252C117.734 46.8252 117.552 46.8823 117.374 46.9966C117.195 47.1079 117.035 47.269 116.895 47.48C116.754 47.688 116.648 47.9355 116.578 48.2227ZM122.375 51L123.741 44.5752H124.778L123.407 51H122.375ZM124.928 51L125.965 46.1221H126.795L126.69 47.0405H126.716C126.833 46.8677 126.97 46.7051 127.125 46.5527C127.28 46.3975 127.456 46.2715 127.652 46.1748C127.852 46.0781 128.074 46.0298 128.32 46.0298C128.59 46.0298 128.818 46.0825 129.006 46.188C129.193 46.2935 129.335 46.4443 129.432 46.6406C129.529 46.8369 129.577 47.0713 129.577 47.3438C129.577 47.4639 129.567 47.5928 129.546 47.7305C129.529 47.8652 129.505 47.9971 129.476 48.126L128.865 51H127.815L128.439 48.0425C128.465 47.9282 128.484 47.8257 128.496 47.7349C128.511 47.644 128.518 47.5591 128.518 47.48C128.518 47.2866 128.47 47.1416 128.373 47.0449C128.279 46.9482 128.139 46.8999 127.951 46.8999C127.746 46.8999 127.544 46.979 127.345 47.1372C127.146 47.2954 126.965 47.5254 126.804 47.8271C126.643 48.1289 126.516 48.4937 126.422 48.9214L125.982 51H124.928ZM129.727 53.1621C129.601 53.1621 129.479 53.1519 129.362 53.1313C129.242 53.1108 129.141 53.0874 129.059 53.061V52.2173C129.146 52.2495 129.231 52.2729 129.313 52.2876C129.393 52.3052 129.476 52.314 129.564 52.314C129.763 52.314 129.926 52.2407 130.052 52.0942C130.181 51.9507 130.277 51.731 130.342 51.4351L131.295 46.9175H130.518L130.614 46.4429L131.462 46.1221L131.555 45.7046C131.619 45.4058 131.701 45.1553 131.801 44.9531C131.903 44.748 132.023 44.584 132.161 44.4609C132.302 44.3379 132.463 44.25 132.645 44.1973C132.829 44.1416 133.037 44.1138 133.269 44.1138C133.444 44.1138 133.613 44.1313 133.774 44.1665C133.938 44.2017 134.08 44.2471 134.2 44.3027L133.928 45.0762C133.843 45.041 133.752 45.0103 133.655 44.9839C133.559 44.9575 133.452 44.9443 133.334 44.9443C133.126 44.9443 132.961 45.0088 132.838 45.1377C132.715 45.2666 132.624 45.4731 132.565 45.7573L132.486 46.1353H133.484L133.326 46.9175H132.319L131.335 51.5757C131.268 51.8862 131.169 52.1602 131.041 52.3975C130.915 52.6377 130.745 52.8252 130.531 52.96C130.317 53.0947 130.049 53.1621 129.727 53.1621ZM133.348 51L134.38 46.1353H135.185L135.079 47.0537H135.127C135.253 46.8662 135.39 46.6963 135.536 46.5439C135.686 46.3916 135.851 46.27 136.033 46.1792C136.214 46.0884 136.417 46.043 136.639 46.043C136.718 46.043 136.8 46.0488 136.885 46.0605C136.973 46.0693 137.049 46.0825 137.114 46.1001L136.89 47.0669C136.825 47.0493 136.755 47.0347 136.679 47.0229C136.603 47.0112 136.522 47.0054 136.437 47.0054C136.244 47.0054 136.062 47.0508 135.892 47.1416C135.722 47.2324 135.568 47.3584 135.431 47.5195C135.293 47.6807 135.174 47.8696 135.075 48.0864C134.975 48.3003 134.897 48.5332 134.842 48.7852L134.376 51H133.348ZM138.573 51.0879C138.324 51.0879 138.097 51.0278 137.892 50.9077C137.689 50.7847 137.528 50.5972 137.408 50.3452C137.288 50.0903 137.228 49.7666 137.228 49.374C137.228 49.0342 137.263 48.7031 137.333 48.3809C137.407 48.0586 137.509 47.7568 137.641 47.4756C137.776 47.1943 137.938 46.9468 138.129 46.7329C138.319 46.5161 138.535 46.3477 138.775 46.2275C139.015 46.1045 139.274 46.043 139.553 46.043C139.764 46.043 139.948 46.0796 140.106 46.1528C140.265 46.2231 140.398 46.3184 140.506 46.4385C140.615 46.5586 140.703 46.6919 140.77 46.8384H140.81L141.073 46.1353H141.864L140.832 51H140.045L140.142 50.2134H140.106C139.98 50.3745 139.84 50.521 139.685 50.6528C139.532 50.7847 139.364 50.8901 139.179 50.9692C138.995 51.0483 138.792 51.0879 138.573 51.0879ZM138.951 50.2485C139.156 50.2485 139.352 50.1724 139.54 50.02C139.727 49.8647 139.893 49.6597 140.036 49.4048C140.183 49.1499 140.291 48.8701 140.361 48.5654C140.396 48.4189 140.42 48.2798 140.432 48.1479C140.446 48.0161 140.454 47.8843 140.454 47.7524C140.454 47.4976 140.386 47.2896 140.251 47.1284C140.117 46.9673 139.932 46.8867 139.698 46.8867C139.537 46.8867 139.383 46.9321 139.236 47.0229C139.093 47.1138 138.962 47.2397 138.845 47.4009C138.728 47.5591 138.625 47.7422 138.538 47.9502C138.453 48.1582 138.387 48.3823 138.34 48.6226C138.296 48.8599 138.274 49.1016 138.274 49.3477C138.274 49.6436 138.333 49.8677 138.45 50.02C138.57 50.1724 138.737 50.2485 138.951 50.2485ZM143.521 51.0879C143.216 51.0879 142.95 51.0615 142.721 51.0088C142.496 50.959 142.292 50.8857 142.11 50.7891V49.9058C142.298 50.0171 142.509 50.1108 142.743 50.187C142.98 50.2603 143.224 50.2969 143.473 50.2969C143.666 50.2969 143.834 50.2705 143.978 50.2178C144.122 50.165 144.233 50.0903 144.312 49.9937C144.394 49.894 144.435 49.7739 144.435 49.6333C144.435 49.5308 144.412 49.4399 144.365 49.3608C144.318 49.2817 144.237 49.2012 144.123 49.1191C144.009 49.0371 143.851 48.939 143.648 48.8247C143.435 48.7046 143.253 48.583 143.104 48.46C142.957 48.334 142.844 48.1948 142.765 48.0425C142.689 47.8901 142.651 47.7114 142.651 47.5063C142.651 47.1987 142.721 46.9365 142.862 46.7197C143.005 46.5 143.208 46.333 143.468 46.2188C143.732 46.1016 144.042 46.043 144.4 46.043C144.687 46.043 144.958 46.0767 145.213 46.144C145.468 46.2085 145.704 46.2993 145.92 46.4165L145.582 47.1812C145.421 47.0903 145.242 47.0127 145.046 46.9482C144.85 46.8809 144.639 46.8472 144.413 46.8472C144.205 46.8472 144.031 46.8955 143.89 46.9922C143.752 47.0889 143.684 47.2266 143.684 47.4053C143.684 47.499 143.706 47.584 143.75 47.6602C143.796 47.7334 143.874 47.8081 143.982 47.8843C144.091 47.9604 144.239 48.0483 144.426 48.1479C144.628 48.2593 144.809 48.3765 144.967 48.4995C145.125 48.6226 145.25 48.7646 145.34 48.9258C145.431 49.084 145.477 49.2759 145.477 49.5015C145.477 49.8442 145.396 50.1343 145.235 50.3716C145.077 50.606 144.851 50.7847 144.558 50.9077C144.265 51.0278 143.919 51.0879 143.521 51.0879ZM147.814 51.0879C147.46 51.0879 147.171 51.0088 146.949 50.8506C146.729 50.6895 146.619 50.4082 146.619 50.0068C146.619 49.9277 146.624 49.8413 146.632 49.7476C146.644 49.6509 146.66 49.5513 146.681 49.4487L147.217 46.9175H146.514L146.61 46.4253L147.441 46.0869L147.995 45.0586H148.641L148.412 46.1353H149.651L149.484 46.9175H148.25L147.709 49.4531C147.694 49.5146 147.681 49.5806 147.669 49.6509C147.661 49.7183 147.656 49.7798 147.656 49.8354C147.656 49.9673 147.693 50.0698 147.766 50.1431C147.839 50.2163 147.951 50.2529 148.1 50.2529C148.214 50.2529 148.324 50.2412 148.43 50.2178C148.535 50.1943 148.651 50.1606 148.777 50.1167V50.8945C148.668 50.9443 148.528 50.9883 148.355 51.0264C148.182 51.0674 148.002 51.0879 147.814 51.0879ZM149.643 51L150.675 46.1353H151.479L151.374 47.0537H151.422C151.548 46.8662 151.685 46.6963 151.831 46.5439C151.98 46.3916 152.146 46.27 152.328 46.1792C152.509 46.0884 152.711 46.043 152.934 46.043C153.013 46.043 153.095 46.0488 153.18 46.0605C153.268 46.0693 153.344 46.0825 153.409 46.1001L153.185 47.0669C153.12 47.0493 153.05 47.0347 152.974 47.0229C152.897 47.0112 152.817 47.0054 152.732 47.0054C152.539 47.0054 152.357 47.0508 152.187 47.1416C152.017 47.2324 151.863 47.3584 151.726 47.5195C151.588 47.6807 151.469 47.8696 151.37 48.0864C151.27 48.3003 151.192 48.5332 151.137 48.7852L150.671 51H149.643ZM154.824 51.0879C154.563 51.0879 154.34 51.0366 154.156 50.9341C153.974 50.8315 153.835 50.6836 153.738 50.4902C153.645 50.2939 153.598 50.0596 153.598 49.7871C153.598 49.667 153.606 49.5352 153.624 49.3916C153.645 49.2451 153.669 49.0942 153.699 48.939L154.296 46.1353H155.325L154.696 49.0884C154.676 49.2026 154.658 49.3066 154.644 49.4004C154.632 49.4912 154.626 49.5747 154.626 49.6509C154.626 49.8472 154.671 49.9966 154.762 50.0991C154.856 50.1987 155.001 50.2485 155.197 50.2485C155.408 50.2485 155.613 50.1694 155.812 50.0112C156.015 49.8501 156.198 49.6172 156.362 49.3125C156.526 49.0078 156.653 48.6401 156.744 48.2095L157.184 46.1353H158.203L157.175 51H156.366L156.472 50.0771H156.428C156.311 50.25 156.174 50.4141 156.019 50.5693C155.864 50.7217 155.688 50.8462 155.492 50.9429C155.295 51.0396 155.073 51.0879 154.824 51.0879ZM160.646 51.0879C160.298 51.0879 159.987 51.0234 159.715 50.8945C159.442 50.7656 159.229 50.5679 159.073 50.3013C158.918 50.0347 158.84 49.6948 158.84 49.2817C158.84 48.9331 158.877 48.5991 158.95 48.2798C159.026 47.9575 159.136 47.6616 159.28 47.3921C159.423 47.1196 159.599 46.8838 159.807 46.6846C160.015 46.4824 160.252 46.3257 160.519 46.2144C160.786 46.1001 161.08 46.043 161.402 46.043C161.654 46.043 161.89 46.0679 162.11 46.1177C162.33 46.1646 162.532 46.2305 162.716 46.3154L162.409 47.1284C162.268 47.064 162.117 47.0083 161.956 46.9614C161.798 46.9116 161.624 46.8867 161.433 46.8867C161.196 46.8867 160.982 46.9512 160.792 47.0801C160.601 47.2061 160.438 47.3804 160.304 47.603C160.169 47.8228 160.065 48.0718 159.992 48.3501C159.921 48.6284 159.886 48.9199 159.886 49.2246C159.886 49.4414 159.923 49.626 159.996 49.7783C160.069 49.9307 160.175 50.0479 160.312 50.1299C160.453 50.209 160.622 50.2485 160.818 50.2485C161.035 50.2485 161.238 50.2178 161.429 50.1562C161.619 50.0918 161.81 50.0127 162 49.9189V50.7715C161.818 50.8682 161.616 50.9443 161.394 51C161.171 51.0586 160.922 51.0879 160.646 51.0879ZM164.355 51.0879C164.001 51.0879 163.712 51.0088 163.49 50.8506C163.27 50.6895 163.16 50.4082 163.16 50.0068C163.16 49.9277 163.165 49.8413 163.173 49.7476C163.185 49.6509 163.201 49.5513 163.222 49.4487L163.758 46.9175H163.055L163.151 46.4253L163.982 46.0869L164.536 45.0586H165.182L164.953 46.1353H166.192L166.025 46.9175H164.791L164.25 49.4531C164.235 49.5146 164.222 49.5806 164.21 49.6509C164.202 49.7183 164.197 49.7798 164.197 49.8354C164.197 49.9673 164.234 50.0698 164.307 50.1431C164.38 50.2163 164.492 50.2529 164.641 50.2529C164.755 50.2529 164.865 50.2412 164.971 50.2178C165.076 50.1943 165.192 50.1606 165.318 50.1167V50.8945C165.209 50.9443 165.069 50.9883 164.896 51.0264C164.723 51.0674 164.543 51.0879 164.355 51.0879ZM167.691 51.0879C167.43 51.0879 167.208 51.0366 167.023 50.9341C166.841 50.8315 166.702 50.6836 166.605 50.4902C166.512 50.2939 166.465 50.0596 166.465 49.7871C166.465 49.667 166.474 49.5352 166.491 49.3916C166.512 49.2451 166.537 49.0942 166.566 48.939L167.164 46.1353H168.192L167.563 49.0884C167.543 49.2026 167.525 49.3066 167.511 49.4004C167.499 49.4912 167.493 49.5747 167.493 49.6509C167.493 49.8472 167.539 49.9966 167.629 50.0991C167.723 50.1987 167.868 50.2485 168.064 50.2485C168.275 50.2485 168.48 50.1694 168.68 50.0112C168.882 49.8501 169.065 49.6172 169.229 49.3125C169.393 49.0078 169.521 48.6401 169.611 48.2095L170.051 46.1353H171.07L170.042 51H169.233L169.339 50.0771H169.295C169.178 50.25 169.042 50.4141 168.886 50.5693C168.731 50.7217 168.555 50.8462 168.359 50.9429C168.163 51.0396 167.94 51.0879 167.691 51.0879ZM171.501 51L172.534 46.1353H173.338L173.232 47.0537H173.281C173.407 46.8662 173.543 46.6963 173.689 46.5439C173.839 46.3916 174.004 46.27 174.186 46.1792C174.368 46.0884 174.57 46.043 174.792 46.043C174.872 46.043 174.954 46.0488 175.039 46.0605C175.126 46.0693 175.203 46.0825 175.267 46.1001L175.043 47.0669C174.979 47.0493 174.908 47.0347 174.832 47.0229C174.756 47.0112 174.675 47.0054 174.59 47.0054C174.397 47.0054 174.215 47.0508 174.045 47.1416C173.875 47.2324 173.722 47.3584 173.584 47.5195C173.446 47.6807 173.328 47.8696 173.228 48.0864C173.128 48.3003 173.051 48.5332 172.995 48.7852L172.529 51H171.501ZM177.227 51.0879C176.855 51.0879 176.53 51.0176 176.251 50.877C175.976 50.7334 175.762 50.5239 175.61 50.2485C175.46 49.9702 175.386 49.6304 175.386 49.229C175.386 48.8306 175.443 48.4424 175.557 48.0645C175.671 47.6836 175.84 47.3408 176.062 47.0361C176.285 46.7314 176.556 46.4897 176.875 46.311C177.195 46.1323 177.558 46.043 177.965 46.043C178.463 46.043 178.837 46.1558 179.086 46.3813C179.338 46.604 179.464 46.8999 179.464 47.269C179.464 47.521 179.407 47.751 179.292 47.959C179.178 48.167 179.004 48.3472 178.77 48.4995C178.538 48.6489 178.244 48.7646 177.886 48.8467C177.532 48.9287 177.114 48.9697 176.634 48.9697H176.436C176.433 49.0137 176.43 49.0591 176.427 49.106C176.424 49.1499 176.423 49.1938 176.423 49.2378C176.423 49.563 176.508 49.8193 176.678 50.0068C176.848 50.1914 177.095 50.2837 177.42 50.2837C177.667 50.2837 177.894 50.2529 178.102 50.1914C178.31 50.1299 178.542 50.0376 178.8 49.9146V50.7275C178.563 50.8418 178.323 50.9312 178.08 50.9956C177.836 51.0571 177.552 51.0879 177.227 51.0879ZM176.563 48.2227H176.713C177.07 48.2227 177.381 48.189 177.645 48.1216C177.908 48.0513 178.112 47.9487 178.255 47.814C178.399 47.6763 178.471 47.5093 178.471 47.313C178.471 47.1606 178.422 47.042 178.326 46.957C178.232 46.8691 178.091 46.8252 177.904 46.8252C177.719 46.8252 177.538 46.8823 177.359 46.9966C177.18 47.1079 177.021 47.269 176.88 47.48C176.739 47.688 176.634 47.9355 176.563 48.2227ZM182.364 51L183.722 44.5752H184.764L183.59 50.1035H185.972L185.783 51H182.364ZM188.262 51.0879C187.907 51.0879 187.619 51.0088 187.396 50.8506C187.176 50.6895 187.066 50.4082 187.066 50.0068C187.066 49.9277 187.071 49.8413 187.08 49.7476C187.091 49.6509 187.107 49.5513 187.128 49.4487L187.664 46.9175H186.961L187.058 46.4253L187.888 46.0869L188.442 45.0586H189.088L188.859 46.1353H190.099L189.932 46.9175H188.697L188.156 49.4531C188.142 49.5146 188.128 49.5806 188.117 49.6509C188.108 49.7183 188.104 49.7798 188.104 49.8354C188.104 49.9673 188.14 50.0698 188.213 50.1431C188.287 50.2163 188.398 50.2529 188.547 50.2529C188.662 50.2529 188.771 50.2412 188.877 50.2178C188.982 50.1943 189.098 50.1606 189.224 50.1167V50.8945C189.116 50.9443 188.975 50.9883 188.802 51.0264C188.629 51.0674 188.449 51.0879 188.262 51.0879ZM191.646 51.0879C191.394 51.0879 191.165 51.0278 190.96 50.9077C190.758 50.7876 190.597 50.6016 190.477 50.3496C190.356 50.0947 190.296 49.7681 190.296 49.3696C190.296 49.0356 190.33 48.709 190.397 48.3896C190.468 48.0674 190.569 47.7656 190.701 47.4844C190.833 47.2002 190.994 46.9512 191.184 46.7373C191.375 46.5205 191.59 46.3521 191.83 46.2319C192.073 46.1089 192.337 46.0474 192.621 46.0474C192.832 46.0474 193.012 46.084 193.162 46.1572C193.311 46.2305 193.437 46.3271 193.54 46.4473C193.642 46.5674 193.729 46.6978 193.799 46.8384H193.838C193.847 46.7622 193.857 46.6655 193.869 46.5483C193.884 46.4282 193.901 46.2993 193.922 46.1616C193.942 46.021 193.967 45.8848 193.997 45.7529L194.335 44.1621H195.359L193.909 51H193.104L193.201 50.2134H193.17C193.042 50.3774 192.901 50.5254 192.749 50.6572C192.599 50.7891 192.434 50.8945 192.252 50.9736C192.07 51.0498 191.868 51.0879 191.646 51.0879ZM192.045 50.2485C192.183 50.2485 192.315 50.2134 192.441 50.1431C192.57 50.0728 192.688 49.9761 192.797 49.853C192.908 49.7271 193.009 49.5835 193.1 49.4224C193.191 49.2583 193.269 49.084 193.333 48.8994C193.397 48.7148 193.447 48.5273 193.482 48.3369C193.518 48.1465 193.535 47.9619 193.535 47.7832C193.535 47.5107 193.469 47.2939 193.337 47.1328C193.208 46.9688 193.015 46.8867 192.757 46.8867C192.59 46.8867 192.435 46.9336 192.292 47.0273C192.148 47.1211 192.018 47.2485 191.9 47.4097C191.783 47.5708 191.682 47.7568 191.597 47.9678C191.515 48.1758 191.452 48.3984 191.408 48.6357C191.364 48.873 191.342 49.1104 191.342 49.3477C191.342 49.6436 191.401 49.8677 191.518 50.02C191.638 50.1724 191.814 50.2485 192.045 50.2485Z" fill="#1D1D1B"/>
<defs>
<clipPath id="clip0_2409_15501">
<rect width="149.879" height="40" fill="white"/>
</clipPath>
</defs>
</svg>
