<svg width="617" height="465" viewBox="0 0 617 465" fill="none" xmlns="http://www.w3.org/2000/svg">
<path d="M369.124 255.354C456.754 255.354 527.792 184.316 527.792 96.6868C527.792 9.05727 456.754 -61.9805 369.124 -61.9805C281.495 -61.9805 210.457 9.05727 210.457 96.6868C210.457 184.316 281.495 255.354 369.124 255.354Z" fill="#E43625"/>
<path d="M369.392 302.184C391.975 302.184 410.329 283.874 410.329 261.246H488.381C488.381 326.971 435.117 380.235 369.392 380.235C303.666 380.235 250.402 326.971 250.402 261.246H328.454C328.454 283.829 346.763 302.184 369.392 302.184Z" fill="#6F368B"/>
<path d="M574.848 96.6865C574.848 119.27 556.538 137.624 533.91 137.624V215.676C599.635 215.676 652.899 162.412 652.899 96.6865C652.899 30.9612 599.635 -22.3027 533.91 -22.3027V55.7488C556.493 55.7488 574.848 74.0583 574.848 96.6865Z" fill="#54AD47"/>
<path d="M163.895 96.6865C163.895 119.27 182.205 137.624 204.833 137.624V215.676C139.108 215.676 85.8438 162.412 85.8438 96.6865C85.8438 30.9612 139.108 -22.3027 204.833 -22.3027V55.7488C182.25 55.7488 163.895 74.0583 163.895 96.6865Z" fill="#3091D0"/>
<path d="M224.136 273.349V336.33C169.478 336.33 125.121 292.018 125.121 237.314H188.102C188.102 257.198 204.252 273.349 224.136 273.349Z" fill="#FFCE1B"/>
<path d="M73.5191 122.463L28.9825 167C-9.66085 128.357 -9.66085 65.6453 28.9825 27.002L73.5191 71.5386C59.4834 85.5744 59.4834 108.427 73.5191 122.463Z" fill="#3091D0"/>
<path d="M515.195 273.349V336.33C569.854 336.33 614.211 292.018 614.211 237.314H551.229C551.229 257.198 535.079 273.349 515.195 273.349Z" fill="#FFCE1B"/>
<path d="M342.537 391.482L298 436.019C336.643 474.662 399.355 474.662 437.998 436.019L393.461 391.482C379.426 405.518 356.572 405.518 342.537 391.482Z" fill="#6F368B"/>
</svg>
